M48
; DRILL file {KiCad 5.99.0+really5.1.10+dfsg1-1} date Wed Sep 29 09:26:05 2021
; FORMAT={-:-/ absolute / metric / decimal}
; #@! TF.CreationDate,2021-09-29T09:26:05+02:00
; #@! TF.GenerationSoftware,Kicad,Pcbnew,5.99.0+really5.1.10+dfsg1-1
FMAT,2
METRIC
T1C0.200
T2C0.250
T3C0.254
T4C0.300
T5C0.350
T6C0.400
T7C0.500
T8C0.600
T9C1.000
T10C1.016
T11C1.300
T12C3.200
T13C1.700
T14C3.200
%
G90
G05
T1
X-85.4Y62.174
X-85.4Y2.374
X-85.4Y-57.426
X-85.4Y-117.226
X-85.185Y69.078
X-85.185Y9.278
X-85.185Y-50.522
X-85.185Y-110.322
X-85.019Y61.412
X-85.019Y1.612
X-85.019Y-58.188
X-85.019Y-117.988
X-84.79Y72.72
X-84.79Y12.92
X-84.79Y-46.88
X-84.79Y-106.68
X-84.765Y75.001
X-84.765Y72.08
X-84.765Y15.201
X-84.765Y12.28
X-84.765Y-44.599
X-84.765Y-47.52
X-84.765Y-104.399
X-84.765Y-107.32
X-84.74Y47.996
X-84.74Y45.202
X-84.74Y-11.804
X-84.74Y-14.598
X-84.74Y-71.604
X-84.74Y-74.398
X-84.74Y-131.404
X-84.74Y-134.198
X-83.089Y45.202
X-83.089Y-14.598
X-83.089Y-74.398
X-83.089Y-134.198
X-81.91Y59.54
X-81.91Y-0.26
X-81.91Y-60.06
X-81.91Y-119.86
X-81.11Y58.14
X-81.11Y-1.66
X-81.11Y-61.46
X-81.11Y-121.26
X-80.21Y44.24
X-80.21Y-15.56
X-80.21Y-75.36
X-80.21Y-135.16
X-79.914Y47.996
X-79.914Y-11.804
X-79.914Y-71.604
X-79.914Y-131.404
X-79.848Y44.873
X-79.848Y-14.927
X-79.848Y-74.727
X-79.848Y-134.527
X-79.71Y72.69
X-79.71Y58.04
X-79.71Y12.89
X-79.71Y-1.76
X-79.71Y-46.91
X-79.71Y-61.56
X-79.71Y-106.71
X-79.71Y-121.36
X-79.583Y45.804
X-79.583Y-13.996
X-79.583Y-73.796
X-79.583Y-133.596
X-78.993Y44.017
X-78.993Y-15.783
X-78.993Y-75.583
X-78.993Y-135.383
X-78.94Y51.683
X-78.94Y-8.117
X-78.94Y-67.917
X-78.94Y-127.717
X-78.69Y49.02
X-78.69Y-10.78
X-78.69Y-70.58
X-78.69Y-130.38
X-78.565Y47.545
X-78.565Y-12.255
X-78.565Y-72.055
X-78.565Y-131.855
X-78.41Y65.84
X-78.41Y6.04
X-78.41Y-53.76
X-78.41Y-113.56
X-78.21Y58.14
X-78.21Y-1.66
X-78.21Y-61.46
X-78.21Y-121.26
X-77.628Y72.126
X-77.628Y12.326
X-77.628Y-47.474
X-77.628Y-107.274
X-75.81Y65.84
X-75.81Y6.04
X-75.81Y-53.76
X-75.81Y-113.56
X-75.681Y77.707
X-75.681Y17.907
X-75.681Y-41.893
X-75.681Y-101.693
X-75.123Y50.253
X-75.123Y-9.547
X-75.123Y-69.347
X-75.123Y-129.147
X-75.11Y45.64
X-75.11Y-14.16
X-75.11Y-73.96
X-75.11Y-133.76
X-73.79Y75.62
X-73.79Y15.82
X-73.79Y-43.98
X-73.79Y-103.78
X-73.69Y77.82
X-73.69Y18.02
X-73.69Y-41.78
X-73.69Y-101.58
X-73.59Y81.32
X-73.59Y21.52
X-73.59Y-38.28
X-73.59Y-98.08
X-73.51Y48.04
X-73.51Y-11.76
X-73.51Y-71.56
X-73.51Y-131.36
X-73.31Y72.64
X-73.31Y71.364
X-73.31Y65.84
X-73.31Y12.84
X-73.31Y11.564
X-73.31Y6.04
X-73.31Y-46.96
X-73.31Y-48.236
X-73.31Y-53.76
X-73.31Y-106.76
X-73.31Y-108.036
X-73.31Y-113.56
X-73.305Y66.533
X-73.305Y6.732
X-73.305Y-53.068
X-73.305Y-112.868
X-72.71Y49.24
X-72.71Y-10.56
X-72.71Y-70.36
X-72.71Y-130.16
X-72.39Y81.32
X-72.39Y21.52
X-72.39Y-38.28
X-72.39Y-98.08
X-72.19Y77.82
X-72.19Y18.02
X-72.19Y-41.78
X-72.19Y-101.58
X-72.059Y49.463
X-72.059Y-10.337
X-72.059Y-70.137
X-72.059Y-129.937
X-71.99Y75.52
X-71.99Y15.72
X-71.99Y-44.08
X-71.99Y-103.88
X-71.827Y49.957
X-71.827Y-9.843
X-71.827Y-69.643
X-71.827Y-129.443
X-71.148Y50.278
X-71.148Y-9.522
X-71.148Y-69.322
X-71.148Y-129.122
X-70.389Y74.666
X-70.389Y14.866
X-70.389Y-44.934
X-70.389Y-104.734
X-70.29Y77.42
X-70.29Y17.62
X-70.29Y-42.18
X-70.29Y-101.98
X-69.945Y50.663
X-69.945Y-9.137
X-69.945Y-68.937
X-69.945Y-128.737
X-69.19Y77.82
X-69.19Y18.02
X-69.19Y-41.78
X-69.19Y-101.58
X-68.921Y62.924
X-68.921Y3.124
X-68.921Y-56.676
X-68.921Y-116.476
X-68.751Y50.663
X-68.751Y-9.137
X-68.751Y-68.937
X-68.751Y-128.737
X-68.23Y71.364
X-68.23Y11.564
X-68.23Y-48.236
X-68.23Y-108.036
X-67.49Y77.52
X-67.49Y17.72
X-67.49Y-42.08
X-67.49Y-101.88
X-66.26Y52.34
X-66.26Y-7.46
X-66.26Y-67.26
X-66.26Y-127.06
X-65.51Y55.64
X-65.51Y-4.16
X-65.51Y-63.96
X-65.51Y-123.76
X-65.23Y51.22
X-65.23Y-8.58
X-65.23Y-68.38
X-65.23Y-128.18
X-65.223Y60.153
X-65.223Y0.353
X-65.223Y-59.447
X-65.223Y-119.247
X-65.182Y82.032
X-65.182Y22.232
X-65.182Y-37.568
X-65.182Y-97.368
X-64.396Y55.068
X-64.396Y-4.732
X-64.396Y-64.532
X-64.396Y-124.332
X-63.288Y54.125
X-63.288Y-5.675
X-63.288Y-65.475
X-63.288Y-125.275
X-63.2Y53.424
X-63.2Y-6.376
X-63.2Y-66.176
X-63.2Y-125.976
X-62.896Y72.38
X-62.896Y12.58
X-62.896Y-47.22
X-62.896Y-107.02
X-62.833Y57.426
X-62.833Y-2.374
X-62.833Y-62.174
X-62.833Y-121.974
X-62.51Y75.04
X-62.51Y15.24
X-62.51Y-44.56
X-62.51Y-104.36
X-62.264Y82.508
X-62.264Y22.708
X-62.264Y-37.092
X-62.264Y-96.892
X-62.259Y58.879
X-62.259Y-0.921
X-62.259Y-60.721
X-62.259Y-120.521
X-62.11Y74.24
X-62.11Y14.44
X-62.11Y-45.36
X-62.11Y-105.16
X-62.09Y44.694
X-62.09Y-15.106
X-62.09Y-74.906
X-62.09Y-134.706
X-62.072Y52.162
X-62.072Y-7.638
X-62.072Y-67.438
X-62.072Y-127.238
X-61.797Y49.444
X-61.797Y-10.356
X-61.797Y-70.156
X-61.797Y-129.956
X-61.388Y43.074
X-61.388Y-16.727
X-61.388Y-76.527
X-61.388Y-136.327
X-61.31Y47.04
X-61.31Y-12.76
X-61.31Y-72.56
X-61.31Y-132.36
X-60.988Y41.832
X-60.988Y-17.968
X-60.988Y-77.768
X-60.988Y-137.568
X-60.79Y39.92
X-60.79Y-19.88
X-60.79Y-79.68
X-60.79Y-139.48
X-60.607Y61.709
X-60.607Y1.909
X-60.607Y-57.891
X-60.607Y-117.691
X-60.51Y40.84
X-60.51Y-18.96
X-60.51Y-78.76
X-60.51Y-138.56
X-60.31Y54.04
X-60.31Y52.74
X-60.31Y48.883
X-60.31Y-5.76
X-60.31Y-7.06
X-60.31Y-10.917
X-60.31Y-65.56
X-60.31Y-66.86
X-60.31Y-70.717
X-60.31Y-125.36
X-60.31Y-126.66
X-60.31Y-130.517
X-60.186Y59.639
X-60.186Y-0.161
X-60.186Y-59.961
X-60.186Y-119.761
X-59.427Y58.292
X-59.427Y-1.508
X-59.427Y-61.308
X-59.427Y-121.108
X-58.959Y83.556
X-58.959Y23.756
X-58.959Y-36.044
X-58.959Y-95.844
X-57.97Y61.873
X-57.97Y2.073
X-57.97Y-57.727
X-57.97Y-117.527
X-57.69Y65.725
X-57.69Y5.925
X-57.69Y-53.875
X-57.69Y-113.676
X-57.62Y60.486
X-57.62Y0.686
X-57.62Y-59.114
X-57.62Y-118.914
X-57.544Y64.861
X-57.544Y5.061
X-57.544Y-54.739
X-57.544Y-114.539
X-57.047Y60.461
X-57.047Y0.661
X-57.047Y-59.139
X-57.047Y-118.939
X-57.01Y38.54
X-57.01Y-21.26
X-57.01Y-81.06
X-57.01Y-140.86
X-56.998Y45.852
X-56.998Y-13.948
X-56.998Y-73.748
X-56.998Y-133.548
X-56.81Y43.54
X-56.81Y-16.26
X-56.81Y-76.06
X-56.81Y-135.86
X-56.8Y68.634
X-56.8Y8.833
X-56.8Y-50.967
X-56.8Y-110.767
X-56.755Y65.44
X-56.755Y5.64
X-56.755Y-54.16
X-56.755Y-113.96
X-56.61Y62.858
X-56.61Y3.058
X-56.61Y-56.742
X-56.61Y-116.542
X-56.379Y58.899
X-56.379Y-0.901
X-56.379Y-60.701
X-56.379Y-120.501
X-56.356Y68.951
X-56.356Y9.151
X-56.356Y-50.649
X-56.356Y-110.449
X-56.31Y47.047
X-56.31Y-12.753
X-56.31Y-72.553
X-56.31Y-132.353
X-56.273Y64.764
X-56.273Y4.964
X-56.273Y-54.836
X-56.273Y-114.636
X-56.235Y66.167
X-56.235Y6.367
X-56.235Y-53.433
X-56.235Y-113.233
X-56.161Y60.471
X-56.161Y0.671
X-56.161Y-59.129
X-56.161Y-118.929
X-56.159Y59.399
X-56.159Y-0.401
X-56.159Y-60.201
X-56.159Y-120.001
X-56.155Y63.185
X-56.155Y3.385
X-56.155Y-56.415
X-56.155Y-116.215
X-56.067Y45.867
X-56.067Y-13.933
X-56.067Y-73.733
X-56.067Y-133.533
X-55.923Y55.188
X-55.923Y-4.612
X-55.923Y-64.412
X-55.923Y-124.212
X-55.777Y56.812
X-55.777Y-2.988
X-55.777Y-62.788
X-55.777Y-122.588
X-55.69Y71.814
X-55.69Y12.014
X-55.69Y-47.786
X-55.69Y-107.586
X-55.682Y68.634
X-55.682Y8.833
X-55.682Y-50.967
X-55.682Y-110.767
X-55.643Y42.372
X-55.643Y-17.428
X-55.643Y-77.228
X-55.643Y-137.029
X-55.61Y40.24
X-55.61Y-19.56
X-55.61Y-79.36
X-55.61Y-139.16
X-55.605Y65.254
X-55.605Y5.454
X-55.605Y-54.346
X-55.605Y-114.146
X-55.467Y66.201
X-55.467Y6.401
X-55.467Y-53.399
X-55.467Y-113.199
X-55.417Y58.991
X-55.417Y-0.809
X-55.417Y-60.609
X-55.417Y-120.409
X-55.368Y43.219
X-55.368Y-16.581
X-55.368Y-76.381
X-55.368Y-136.181
X-55.303Y54.65
X-55.303Y-5.15
X-55.303Y-64.95
X-55.303Y-124.75
X-55.299Y55.735
X-55.299Y-4.065
X-55.299Y-63.865
X-55.299Y-123.665
X-55.267Y57.044
X-55.267Y-2.756
X-55.267Y-62.556
X-55.267Y-122.356
X-55.243Y68.996
X-55.243Y9.196
X-55.243Y-50.604
X-55.243Y-110.404
X-54.978Y60.508
X-54.978Y0.708
X-54.978Y-59.092
X-54.978Y-118.892
X-54.895Y68.062
X-54.895Y8.262
X-54.895Y-51.538
X-54.895Y-111.338
X-54.881Y57.43
X-54.881Y-2.37
X-54.881Y-62.17
X-54.881Y-121.97
X-54.862Y56.189
X-54.862Y-3.611
X-54.862Y-63.411
X-54.862Y-123.211
X-54.856Y65.186
X-54.856Y5.386
X-54.856Y-54.414
X-54.856Y-114.214
X-54.851Y53.627
X-54.851Y-6.173
X-54.851Y-65.973
X-54.851Y-125.773
X-54.753Y81.76
X-54.753Y21.96
X-54.753Y-37.84
X-54.753Y-97.64
X-54.71Y70.84
X-54.71Y11.04
X-54.71Y-48.76
X-54.71Y-108.56
X-54.51Y71.414
X-54.51Y11.614
X-54.51Y-48.186
X-54.51Y-107.986
X-54.202Y53.914
X-54.202Y-5.886
X-54.202Y-65.686
X-54.202Y-125.486
X-53.929Y71.153
X-53.929Y11.353
X-53.929Y-48.447
X-53.929Y-108.247
X-53.91Y68.412
X-53.91Y62.84
X-53.91Y8.612
X-53.91Y3.04
X-53.91Y-51.188
X-53.91Y-56.76
X-53.91Y-110.988
X-53.91Y-116.56
X-53.907Y59.637
X-53.907Y-0.163
X-53.907Y-59.963
X-53.907Y-119.763
X-53.896Y69.212
X-53.896Y9.412
X-53.896Y-50.388
X-53.896Y-110.188
X-53.765Y54.249
X-53.765Y-5.551
X-53.765Y-65.351
X-53.765Y-125.151
X-53.76Y47.04
X-53.76Y-12.76
X-53.76Y-72.56
X-53.76Y-132.36
X-53.691Y52.905
X-53.691Y-6.895
X-53.691Y-66.695
X-53.691Y-126.495
X-53.528Y70.012
X-53.528Y10.212
X-53.528Y-49.588
X-53.528Y-109.388
X-53.51Y70.64
X-53.51Y10.84
X-53.51Y-48.96
X-53.51Y-108.76
X-53.31Y45.64
X-53.31Y-14.16
X-53.31Y-73.96
X-53.31Y-133.76
X-53.31Y71.24
X-53.31Y38.99
X-53.31Y11.44
X-53.31Y-20.81
X-53.31Y-48.36
X-53.31Y-80.61
X-53.31Y-108.16
X-53.31Y-140.41
X-53.113Y58.038
X-53.113Y-1.762
X-53.113Y-61.562
X-53.113Y-121.362
X-53.11Y62.84
X-53.11Y3.04
X-53.11Y-56.76
X-53.11Y-116.56
X-53.11Y67.64
X-53.11Y66.84
X-53.11Y66.04
X-53.11Y65.24
X-53.11Y64.44
X-53.11Y63.64
X-53.11Y62.04
X-53.11Y59.637
X-53.11Y58.84
X-53.11Y56.44
X-53.11Y55.64
X-53.11Y54.84
X-53.11Y7.84
X-53.11Y7.04
X-53.11Y6.24
X-53.11Y5.44
X-53.11Y4.64
X-53.11Y3.84
X-53.11Y2.24
X-53.11Y-0.163
X-53.11Y-0.96
X-53.11Y-3.36
X-53.11Y-4.16
X-53.11Y-4.96
X-53.11Y-51.96
X-53.11Y-52.76
X-53.11Y-53.56
X-53.11Y-54.36
X-53.11Y-55.16
X-53.11Y-55.96
X-53.11Y-57.56
X-53.11Y-59.963
X-53.11Y-60.76
X-53.11Y-63.16
X-53.11Y-63.96
X-53.11Y-64.76
X-53.11Y-111.76
X-53.11Y-112.56
X-53.11Y-113.36
X-53.11Y-114.16
X-53.11Y-114.96
X-53.11Y-115.76
X-53.11Y-117.36
X-53.11Y-119.763
X-53.11Y-120.56
X-53.11Y-122.96
X-53.11Y-123.76
X-53.11Y-124.56
X-53.107Y60.437
X-53.107Y0.637
X-53.107Y-59.163
X-53.107Y-118.963
X-52.931Y52.853
X-52.931Y-6.947
X-52.931Y-66.747
X-52.931Y-126.547
X-52.86Y39.44
X-52.86Y-20.36
X-52.86Y-80.16
X-52.86Y-139.96
X-52.71Y70.726
X-52.71Y10.926
X-52.71Y-48.874
X-52.71Y-108.674
X-52.695Y72.565
X-52.695Y12.765
X-52.695Y-47.035
X-52.695Y-106.835
X-52.691Y71.951
X-52.691Y12.151
X-52.691Y-47.649
X-52.691Y-107.449
X-52.634Y84.78
X-52.634Y24.98
X-52.634Y-34.82
X-52.634Y-94.62
X-52.51Y46.444
X-52.51Y-13.356
X-52.51Y-73.156
X-52.51Y-132.956
X-52.507Y82.367
X-52.507Y22.567
X-52.507Y-37.233
X-52.507Y-97.033
X-52.391Y52.452
X-52.391Y-7.348
X-52.391Y-67.148
X-52.391Y-126.948
X-52.36Y38.94
X-52.36Y-20.86
X-52.36Y-80.66
X-52.36Y-140.46
X-52.317Y67.64
X-52.317Y7.84
X-52.317Y-51.96
X-52.317Y-111.76
X-52.31Y66.84
X-52.31Y66.04
X-52.31Y65.24
X-52.31Y64.44
X-52.31Y63.64
X-52.31Y60.44
X-52.31Y59.64
X-52.31Y58.84
X-52.31Y58.04
X-52.31Y57.24
X-52.31Y56.44
X-52.31Y55.64
X-52.31Y54.84
X-52.31Y7.04
X-52.31Y6.24
X-52.31Y5.44
X-52.31Y4.64
X-52.31Y3.84
X-52.31Y0.64
X-52.31Y-0.16
X-52.31Y-0.96
X-52.31Y-1.76
X-52.31Y-2.56
X-52.31Y-3.36
X-52.31Y-4.16
X-52.31Y-4.96
X-52.31Y-52.76
X-52.31Y-53.56
X-52.31Y-54.36
X-52.31Y-55.16
X-52.31Y-55.96
X-52.31Y-59.16
X-52.31Y-59.96
X-52.31Y-60.76
X-52.31Y-61.56
X-52.31Y-62.36
X-52.31Y-63.16
X-52.31Y-63.96
X-52.31Y-64.76
X-52.31Y-112.56
X-52.31Y-113.36
X-52.31Y-114.16
X-52.31Y-114.96
X-52.31Y-115.76
X-52.31Y-118.96
X-52.31Y-119.76
X-52.31Y-120.56
X-52.31Y-121.36
X-52.31Y-122.16
X-52.31Y-122.96
X-52.31Y-123.76
X-52.31Y-124.56
X-52.305Y62.04
X-52.305Y2.24
X-52.305Y-57.56
X-52.305Y-117.36
X-52.009Y53.286
X-52.009Y-6.514
X-52.009Y-66.314
X-52.009Y-126.114
X-51.855Y39.445
X-51.855Y-20.355
X-51.855Y-80.155
X-51.855Y-139.955
X-51.742Y46.24
X-51.742Y-13.56
X-51.742Y-73.36
X-51.742Y-133.16
X-51.517Y67.64
X-51.517Y7.84
X-51.517Y-51.96
X-51.517Y-111.76
X-51.515Y62.04
X-51.515Y2.24
X-51.515Y-57.56
X-51.515Y-117.36
X-51.51Y66.84
X-51.51Y66.04
X-51.51Y65.24
X-51.51Y64.44
X-51.51Y63.64
X-51.51Y61.24
X-51.51Y60.44
X-51.51Y58.84
X-51.51Y57.24
X-51.51Y56.44
X-51.51Y55.64
X-51.51Y7.04
X-51.51Y6.24
X-51.51Y5.44
X-51.51Y4.64
X-51.51Y3.84
X-51.51Y1.44
X-51.51Y0.64
X-51.51Y-0.96
X-51.51Y-2.56
X-51.51Y-3.36
X-51.51Y-4.16
X-51.51Y-52.76
X-51.51Y-53.56
X-51.51Y-54.36
X-51.51Y-55.16
X-51.51Y-55.96
X-51.51Y-58.36
X-51.51Y-59.16
X-51.51Y-60.76
X-51.51Y-62.36
X-51.51Y-63.16
X-51.51Y-63.96
X-51.51Y-112.56
X-51.51Y-113.36
X-51.51Y-114.16
X-51.51Y-114.96
X-51.51Y-115.76
X-51.51Y-118.16
X-51.51Y-118.96
X-51.51Y-120.56
X-51.51Y-122.16
X-51.51Y-122.96
X-51.51Y-123.76
X-51.279Y52.868
X-51.279Y-6.932
X-51.279Y-66.732
X-51.279Y-126.532
X-50.91Y52.44
X-50.91Y-7.36
X-50.91Y-67.16
X-50.91Y-126.96
X-50.906Y71.585
X-50.906Y11.785
X-50.906Y-48.015
X-50.906Y-107.815
X-50.834Y72.3
X-50.834Y12.5
X-50.834Y-47.3
X-50.834Y-107.1
X-50.726Y54.04
X-50.726Y-5.76
X-50.726Y-65.56
X-50.726Y-125.36
X-50.717Y67.64
X-50.717Y7.84
X-50.717Y-51.96
X-50.717Y-111.76
X-50.71Y54.84
X-50.71Y-4.96
X-50.71Y-64.76
X-50.71Y-124.56
X-50.71Y66.84
X-50.71Y66.04
X-50.71Y65.24
X-50.71Y58.04
X-50.71Y7.04
X-50.71Y6.24
X-50.71Y5.44
X-50.71Y-1.76
X-50.71Y-52.76
X-50.71Y-53.56
X-50.71Y-54.36
X-50.71Y-61.56
X-50.71Y-112.56
X-50.71Y-113.36
X-50.71Y-114.16
X-50.71Y-121.36
X-50.656Y61.23
X-50.656Y1.43
X-50.656Y-58.37
X-50.656Y-118.17
X-50.51Y40.69
X-50.51Y-19.11
X-50.51Y-78.91
X-50.51Y-138.71
X-50.119Y70.442
X-50.119Y10.642
X-50.119Y-49.158
X-50.119Y-108.958
X-50.094Y84.78
X-50.094Y24.98
X-50.094Y-34.82
X-50.094Y-94.62
X-50.061Y71.024
X-50.061Y11.224
X-50.061Y-48.576
X-50.061Y-108.376
X-50.01Y52.54
X-50.01Y-7.26
X-50.01Y-67.06
X-50.01Y-126.86
X-49.917Y67.64
X-49.917Y7.84
X-49.917Y-51.96
X-49.917Y-111.76
X-49.91Y54.84
X-49.91Y-4.96
X-49.91Y-64.76
X-49.91Y-124.56
X-49.91Y54.04
X-49.91Y-5.76
X-49.91Y-65.56
X-49.91Y-125.36
X-49.91Y68.44
X-49.91Y66.84
X-49.91Y66.04
X-49.91Y64.44
X-49.91Y63.64
X-49.91Y62.84
X-49.91Y62.04
X-49.91Y44.14
X-49.91Y8.64
X-49.91Y7.04
X-49.91Y6.24
X-49.91Y4.64
X-49.91Y3.84
X-49.91Y3.04
X-49.91Y2.24
X-49.91Y-15.66
X-49.91Y-51.16
X-49.91Y-52.76
X-49.91Y-53.56
X-49.91Y-55.16
X-49.91Y-55.96
X-49.91Y-56.76
X-49.91Y-57.56
X-49.91Y-75.46
X-49.91Y-110.96
X-49.91Y-112.56
X-49.91Y-113.36
X-49.91Y-114.96
X-49.91Y-115.76
X-49.91Y-116.56
X-49.91Y-117.36
X-49.91Y-135.26
X-49.866Y59.684
X-49.866Y-0.116
X-49.866Y-59.916
X-49.866Y-119.716
X-49.708Y72.31
X-49.708Y12.51
X-49.708Y-47.29
X-49.708Y-107.09
X-49.554Y71.786
X-49.554Y11.986
X-49.554Y-47.814
X-49.554Y-107.614
X-49.51Y52.94
X-49.51Y-6.86
X-49.51Y-66.66
X-49.51Y-126.46
X-49.506Y70.986
X-49.506Y11.186
X-49.506Y-48.614
X-49.506Y-108.414
X-49.46Y41.44
X-49.46Y-18.36
X-49.46Y-78.16
X-49.46Y-137.96
X-49.41Y42.94
X-49.41Y-16.86
X-49.41Y-76.66
X-49.41Y-136.46
X-49.36Y46.19
X-49.36Y-13.61
X-49.36Y-73.41
X-49.36Y-133.21
X-49.21Y38.54
X-49.21Y-21.26
X-49.21Y-81.06
X-49.21Y-140.86
X-49.117Y67.64
X-49.117Y7.84
X-49.117Y-51.96
X-49.117Y-111.76
X-49.11Y66.84
X-49.11Y66.04
X-49.11Y64.44
X-49.11Y61.24
X-49.11Y56.44
X-49.11Y55.64
X-49.11Y41.94
X-49.11Y7.04
X-49.11Y6.24
X-49.11Y4.64
X-49.11Y1.44
X-49.11Y-3.36
X-49.11Y-4.16
X-49.11Y-17.86
X-49.11Y-52.76
X-49.11Y-53.56
X-49.11Y-55.16
X-49.11Y-58.36
X-49.11Y-63.16
X-49.11Y-63.96
X-49.11Y-77.66
X-49.11Y-112.56
X-49.11Y-113.36
X-49.11Y-114.96
X-49.11Y-118.16
X-49.11Y-122.96
X-49.11Y-123.76
X-49.11Y-137.46
X-48.982Y71.621
X-48.982Y11.821
X-48.982Y-47.979
X-48.982Y-107.779
X-48.71Y52.94
X-48.71Y-6.86
X-48.71Y-66.66
X-48.71Y-126.46
X-48.365Y73.543
X-48.365Y13.743
X-48.365Y-46.057
X-48.365Y-105.858
X-48.31Y66.04
X-48.31Y64.44
X-48.31Y62.84
X-48.31Y59.64
X-48.31Y56.44
X-48.31Y55.64
X-48.31Y54.04
X-48.31Y6.24
X-48.31Y4.64
X-48.31Y3.04
X-48.31Y-0.16
X-48.31Y-3.36
X-48.31Y-4.16
X-48.31Y-5.76
X-48.31Y-53.56
X-48.31Y-55.16
X-48.31Y-56.76
X-48.31Y-59.96
X-48.31Y-63.16
X-48.31Y-63.96
X-48.31Y-65.56
X-48.31Y-113.36
X-48.31Y-114.96
X-48.31Y-116.56
X-48.31Y-119.76
X-48.31Y-122.96
X-48.31Y-123.76
X-48.31Y-125.36
X-48.263Y71.152
X-48.263Y11.352
X-48.263Y-48.448
X-48.263Y-108.248
X-48.182Y71.756
X-48.182Y11.956
X-48.182Y-47.844
X-48.182Y-107.644
X-48.016Y72.415
X-48.016Y12.615
X-48.016Y-47.185
X-48.016Y-106.985
X-47.91Y53.44
X-47.91Y-6.36
X-47.91Y-66.16
X-47.91Y-125.96
X-47.874Y57.804
X-47.874Y-1.996
X-47.874Y-61.796
X-47.874Y-121.596
X-47.662Y74.088
X-47.662Y14.288
X-47.662Y-45.512
X-47.662Y-105.312
X-47.51Y67.64
X-47.51Y64.44
X-47.51Y60.44
X-47.51Y59.64
X-47.51Y55.64
X-47.51Y54.04
X-47.51Y7.84
X-47.51Y4.64
X-47.51Y0.64
X-47.51Y-0.16
X-47.51Y-4.16
X-47.51Y-5.76
X-47.51Y-51.96
X-47.51Y-55.16
X-47.51Y-59.16
X-47.51Y-59.96
X-47.51Y-63.96
X-47.51Y-65.56
X-47.51Y-111.76
X-47.51Y-114.96
X-47.51Y-118.96
X-47.51Y-119.76
X-47.51Y-123.76
X-47.51Y-125.36
X-47.11Y53.44
X-47.11Y-6.36
X-47.11Y-66.16
X-47.11Y-125.96
X-46.808Y71.477
X-46.808Y11.677
X-46.808Y-48.123
X-46.808Y-107.923
X-46.71Y60.44
X-46.71Y59.64
X-46.71Y54.04
X-46.71Y0.64
X-46.71Y-0.16
X-46.71Y-5.76
X-46.71Y-59.16
X-46.71Y-59.96
X-46.71Y-65.56
X-46.71Y-118.96
X-46.71Y-119.76
X-46.71Y-125.36
X-46.462Y70.76
X-46.462Y10.959
X-46.462Y-48.841
X-46.462Y-108.641
X-46.21Y47.24
X-46.21Y46.34
X-46.21Y-12.56
X-46.21Y-13.46
X-46.21Y-72.36
X-46.21Y-73.26
X-46.21Y-132.16
X-46.21Y-133.06
X-46.144Y70.125
X-46.144Y10.324
X-46.144Y-49.476
X-46.144Y-109.276
X-45.99Y82.903
X-45.99Y23.103
X-45.99Y-36.697
X-45.99Y-96.497
X-45.91Y67.64
X-45.91Y64.44
X-45.91Y60.44
X-45.91Y59.64
X-45.91Y55.64
X-45.91Y54.04
X-45.91Y53.24
X-45.91Y7.84
X-45.91Y4.64
X-45.91Y0.64
X-45.91Y-0.16
X-45.91Y-4.16
X-45.91Y-5.76
X-45.91Y-6.56
X-45.91Y-51.96
X-45.91Y-55.16
X-45.91Y-59.16
X-45.91Y-59.96
X-45.91Y-63.96
X-45.91Y-65.56
X-45.91Y-66.36
X-45.91Y-111.76
X-45.91Y-114.96
X-45.91Y-118.96
X-45.91Y-119.76
X-45.91Y-123.76
X-45.91Y-125.36
X-45.91Y-126.16
X-45.636Y69.617
X-45.636Y9.816
X-45.636Y-49.984
X-45.636Y-109.784
X-45.214Y73.269
X-45.214Y13.469
X-45.214Y-46.331
X-45.214Y-106.131
X-45.13Y66.02
X-45.13Y6.22
X-45.13Y-53.58
X-45.13Y-113.38
X-45.11Y67.64
X-45.11Y66.84
X-45.11Y64.44
X-45.11Y62.84
X-45.11Y59.64
X-45.11Y56.44
X-45.11Y55.64
X-45.11Y54.04
X-45.11Y7.84
X-45.11Y7.04
X-45.11Y4.64
X-45.11Y3.04
X-45.11Y-0.16
X-45.11Y-3.36
X-45.11Y-4.16
X-45.11Y-5.76
X-45.11Y-51.96
X-45.11Y-52.76
X-45.11Y-55.16
X-45.11Y-56.76
X-45.11Y-59.96
X-45.11Y-63.16
X-45.11Y-63.96
X-45.11Y-65.56
X-45.11Y-111.76
X-45.11Y-112.56
X-45.11Y-114.96
X-45.11Y-116.56
X-45.11Y-119.76
X-45.11Y-122.96
X-45.11Y-123.76
X-45.11Y-125.36
X-45.11Y53.24
X-45.11Y-6.56
X-45.11Y-66.36
X-45.11Y-126.16
X-44.545Y73.269
X-44.545Y13.469
X-44.545Y-46.331
X-44.545Y-106.131
X-44.31Y67.64
X-44.31Y66.84
X-44.31Y66.04
X-44.31Y64.44
X-44.31Y61.24
X-44.31Y57.64
X-44.31Y56.44
X-44.31Y55.64
X-44.31Y7.84
X-44.31Y7.04
X-44.31Y6.24
X-44.31Y4.64
X-44.31Y1.44
X-44.31Y-2.16
X-44.31Y-3.36
X-44.31Y-4.16
X-44.31Y-51.96
X-44.31Y-52.76
X-44.31Y-53.56
X-44.31Y-55.16
X-44.31Y-58.36
X-44.31Y-61.96
X-44.31Y-63.16
X-44.31Y-63.96
X-44.31Y-111.76
X-44.31Y-112.56
X-44.31Y-113.36
X-44.31Y-114.96
X-44.31Y-118.16
X-44.31Y-121.76
X-44.31Y-122.96
X-44.31Y-123.76
X-43.846Y73.269
X-43.846Y13.469
X-43.846Y-46.331
X-43.846Y-106.131
X-43.731Y71.077
X-43.731Y11.277
X-43.731Y-48.523
X-43.731Y-108.323
X-43.71Y80.24
X-43.71Y20.44
X-43.71Y-39.36
X-43.71Y-99.16
X-43.61Y47.24
X-43.61Y46.24
X-43.61Y-12.56
X-43.61Y-13.56
X-43.61Y-72.36
X-43.61Y-73.36
X-43.61Y-132.16
X-43.61Y-133.16
X-43.55Y57.933
X-43.55Y-1.867
X-43.55Y-61.667
X-43.55Y-121.467
X-43.51Y66.84
X-43.51Y66.04
X-43.51Y64.44
X-43.51Y63.64
X-43.51Y62.84
X-43.51Y62.04
X-43.51Y59.64
X-43.51Y53.24
X-43.51Y7.04
X-43.51Y6.24
X-43.51Y4.64
X-43.51Y3.84
X-43.51Y3.04
X-43.51Y2.24
X-43.51Y-0.16
X-43.51Y-6.56
X-43.51Y-52.76
X-43.51Y-53.56
X-43.51Y-55.16
X-43.51Y-55.96
X-43.51Y-56.76
X-43.51Y-57.56
X-43.51Y-59.96
X-43.51Y-66.36
X-43.51Y-112.56
X-43.51Y-113.36
X-43.51Y-114.96
X-43.51Y-115.76
X-43.51Y-116.56
X-43.51Y-117.36
X-43.51Y-119.76
X-43.51Y-126.16
X-42.91Y74.84
X-42.91Y15.04
X-42.91Y-44.76
X-42.91Y-104.56
X-42.726Y70.009
X-42.726Y10.209
X-42.726Y-49.591
X-42.726Y-109.391
X-42.71Y67.64
X-42.71Y66.84
X-42.71Y66.02
X-42.71Y65.24
X-42.71Y61.24
X-42.71Y54.84
X-42.71Y54.04
X-42.71Y53.24
X-42.71Y7.84
X-42.71Y7.04
X-42.71Y6.22
X-42.71Y5.44
X-42.71Y1.44
X-42.71Y-4.96
X-42.71Y-5.76
X-42.71Y-6.56
X-42.71Y-51.96
X-42.71Y-52.76
X-42.71Y-53.58
X-42.71Y-54.36
X-42.71Y-58.36
X-42.71Y-64.76
X-42.71Y-65.56
X-42.71Y-66.36
X-42.71Y-111.76
X-42.71Y-112.56
X-42.71Y-113.38
X-42.71Y-114.16
X-42.71Y-118.16
X-42.71Y-124.56
X-42.71Y-125.36
X-42.71Y-126.16
X-42.417Y70.602
X-42.417Y10.802
X-42.417Y-48.998
X-42.417Y-108.798
X-42.404Y71.703
X-42.404Y11.903
X-42.404Y-47.897
X-42.404Y-107.697
X-41.93Y64.42
X-41.93Y4.62
X-41.93Y-55.18
X-41.93Y-114.98
X-41.91Y67.64
X-41.91Y66.84
X-41.91Y66.04
X-41.91Y65.24
X-41.91Y62.84
X-41.91Y62.04
X-41.91Y60.44
X-41.91Y58.84
X-41.91Y58.04
X-41.91Y57.24
X-41.91Y55.64
X-41.91Y54.84
X-41.91Y54.04
X-41.91Y7.84
X-41.91Y7.04
X-41.91Y6.24
X-41.91Y5.44
X-41.91Y3.04
X-41.91Y2.24
X-41.91Y0.64
X-41.91Y-0.96
X-41.91Y-1.76
X-41.91Y-2.56
X-41.91Y-4.16
X-41.91Y-4.96
X-41.91Y-5.76
X-41.91Y-51.96
X-41.91Y-52.76
X-41.91Y-53.56
X-41.91Y-54.36
X-41.91Y-56.76
X-41.91Y-57.56
X-41.91Y-59.16
X-41.91Y-60.76
X-41.91Y-61.56
X-41.91Y-62.36
X-41.91Y-63.96
X-41.91Y-64.76
X-41.91Y-65.56
X-41.91Y-111.76
X-41.91Y-112.56
X-41.91Y-113.36
X-41.91Y-114.16
X-41.91Y-116.56
X-41.91Y-117.36
X-41.91Y-118.96
X-41.91Y-120.56
X-41.91Y-121.36
X-41.91Y-122.16
X-41.91Y-123.76
X-41.91Y-124.56
X-41.91Y-125.36
X-41.771Y75.065
X-41.771Y15.265
X-41.771Y-44.535
X-41.771Y-104.335
X-41.539Y85.177
X-41.539Y25.377
X-41.539Y-34.423
X-41.539Y-94.223
X-41.481Y73.223
X-41.481Y13.423
X-41.481Y-46.377
X-41.481Y-106.177
X-41.11Y67.64
X-41.11Y66.84
X-41.11Y66.04
X-41.11Y65.24
X-41.11Y64.44
X-41.11Y63.64
X-41.11Y62.84
X-41.11Y60.44
X-41.11Y59.64
X-41.11Y58.84
X-41.11Y58.04
X-41.11Y57.24
X-41.11Y56.44
X-41.11Y55.64
X-41.11Y54.84
X-41.11Y54.04
X-41.11Y47.24
X-41.11Y46.24
X-41.11Y7.84
X-41.11Y7.04
X-41.11Y6.24
X-41.11Y5.44
X-41.11Y4.64
X-41.11Y3.84
X-41.11Y3.04
X-41.11Y0.64
X-41.11Y-0.16
X-41.11Y-0.96
X-41.11Y-1.76
X-41.11Y-2.56
X-41.11Y-3.36
X-41.11Y-4.16
X-41.11Y-4.96
X-41.11Y-5.76
X-41.11Y-12.56
X-41.11Y-13.56
X-41.11Y-51.96
X-41.11Y-52.76
X-41.11Y-53.56
X-41.11Y-54.36
X-41.11Y-55.16
X-41.11Y-55.96
X-41.11Y-56.76
X-41.11Y-59.16
X-41.11Y-59.96
X-41.11Y-60.76
X-41.11Y-61.56
X-41.11Y-62.36
X-41.11Y-63.16
X-41.11Y-63.96
X-41.11Y-64.76
X-41.11Y-65.56
X-41.11Y-72.36
X-41.11Y-73.36
X-41.11Y-111.76
X-41.11Y-112.56
X-41.11Y-113.36
X-41.11Y-114.16
X-41.11Y-114.96
X-41.11Y-115.76
X-41.11Y-116.56
X-41.11Y-118.96
X-41.11Y-119.76
X-41.11Y-120.56
X-41.11Y-121.36
X-41.11Y-122.16
X-41.11Y-122.96
X-41.11Y-123.76
X-41.11Y-124.56
X-41.11Y-125.36
X-41.11Y-132.16
X-41.11Y-133.16
X-40.671Y70.92
X-40.671Y11.119
X-40.671Y-48.681
X-40.671Y-108.481
X-40.556Y69.517
X-40.556Y9.717
X-40.556Y-50.083
X-40.556Y-109.883
X-40.31Y67.64
X-40.31Y66.84
X-40.31Y66.04
X-40.31Y65.24
X-40.31Y64.44
X-40.31Y63.64
X-40.31Y62.84
X-40.31Y62.04
X-40.31Y60.44
X-40.31Y59.64
X-40.31Y58.84
X-40.31Y58.04
X-40.31Y57.24
X-40.31Y56.44
X-40.31Y55.64
X-40.31Y54.84
X-40.31Y54.04
X-40.31Y7.84
X-40.31Y7.04
X-40.31Y6.24
X-40.31Y5.44
X-40.31Y4.64
X-40.31Y3.84
X-40.31Y3.04
X-40.31Y2.24
X-40.31Y0.64
X-40.31Y-0.16
X-40.31Y-0.96
X-40.31Y-1.76
X-40.31Y-2.56
X-40.31Y-3.36
X-40.31Y-4.16
X-40.31Y-4.96
X-40.31Y-5.76
X-40.31Y-51.96
X-40.31Y-52.76
X-40.31Y-53.56
X-40.31Y-54.36
X-40.31Y-55.16
X-40.31Y-55.96
X-40.31Y-56.76
X-40.31Y-57.56
X-40.31Y-59.16
X-40.31Y-59.96
X-40.31Y-60.76
X-40.31Y-61.56
X-40.31Y-62.36
X-40.31Y-63.16
X-40.31Y-63.96
X-40.31Y-64.76
X-40.31Y-65.56
X-40.31Y-111.76
X-40.31Y-112.56
X-40.31Y-113.36
X-40.31Y-114.16
X-40.31Y-114.96
X-40.31Y-115.76
X-40.31Y-116.56
X-40.31Y-117.36
X-40.31Y-118.96
X-40.31Y-119.76
X-40.31Y-120.56
X-40.31Y-121.36
X-40.31Y-122.16
X-40.31Y-122.96
X-40.31Y-123.76
X-40.31Y-124.56
X-40.31Y-125.36
X-39.973Y70.92
X-39.973Y11.119
X-39.973Y-48.681
X-39.973Y-108.481
X-39.51Y67.64
X-39.51Y63.64
X-39.51Y58.04
X-39.51Y54.84
X-39.51Y54.04
X-39.51Y7.84
X-39.51Y3.84
X-39.51Y-1.76
X-39.51Y-4.96
X-39.51Y-5.76
X-39.51Y-51.96
X-39.51Y-55.96
X-39.51Y-61.56
X-39.51Y-64.76
X-39.51Y-65.56
X-39.51Y-111.76
X-39.51Y-115.76
X-39.51Y-121.36
X-39.51Y-124.56
X-39.51Y-125.36
X-39.11Y80.24
X-39.11Y20.44
X-39.11Y-39.36
X-39.11Y-99.16
X-39.09Y69.22
X-39.09Y9.42
X-39.09Y-50.38
X-39.09Y-110.18
X-38.91Y53.54
X-38.91Y-6.26
X-38.91Y-66.06
X-38.91Y-125.86
X-38.877Y52.94
X-38.877Y-6.86
X-38.877Y-66.66
X-38.877Y-126.46
X-38.71Y63.64
X-38.71Y3.84
X-38.71Y-55.96
X-38.71Y-115.76
X-38.631Y77.062
X-38.631Y17.262
X-38.631Y-42.538
X-38.631Y-102.338
X-38.49Y72.685
X-38.49Y12.885
X-38.49Y-46.915
X-38.49Y-106.715
X-38.322Y73.333
X-38.322Y13.532
X-38.322Y-46.268
X-38.322Y-106.068
X-38.31Y46.24
X-38.31Y-13.56
X-38.31Y-73.36
X-38.31Y-133.16
X-37.889Y67.775
X-37.889Y7.975
X-37.889Y-51.825
X-37.889Y-111.625
X-37.846Y55.823
X-37.846Y-3.977
X-37.846Y-63.777
X-37.846Y-123.577
X-37.759Y58.84
X-37.759Y-0.96
X-37.759Y-60.76
X-37.759Y-120.56
X-37.608Y77.477
X-37.608Y17.677
X-37.608Y-42.123
X-37.608Y-101.923
X-37.578Y63.768
X-37.578Y3.968
X-37.578Y-55.832
X-37.578Y-115.632
X-37.49Y55.272
X-37.49Y-4.528
X-37.49Y-64.328
X-37.49Y-124.129
X-37.279Y61.357
X-37.279Y1.557
X-37.279Y-58.243
X-37.279Y-118.043
X-37.242Y80.381
X-37.242Y20.581
X-37.242Y-39.219
X-37.242Y-99.019
X-37.192Y53.747
X-37.192Y-6.053
X-37.192Y-65.853
X-37.192Y-125.653
X-36.988Y68.697
X-36.988Y8.897
X-36.988Y-50.903
X-36.988Y-110.703
X-36.956Y51.84
X-36.956Y-7.96
X-36.956Y-67.76
X-36.956Y-127.56
X-36.841Y55.718
X-36.841Y-4.082
X-36.841Y-63.882
X-36.841Y-123.682
X-36.706Y61.417
X-36.706Y1.617
X-36.706Y-58.183
X-36.706Y-117.983
X-36.671Y67.3
X-36.671Y7.5
X-36.671Y-52.3
X-36.671Y-112.1
X-36.657Y53.951
X-36.657Y-5.849
X-36.657Y-65.649
X-36.657Y-125.449
X-36.56Y85.616
X-36.56Y25.816
X-36.56Y-33.984
X-36.56Y-93.784
X-36.51Y81.44
X-36.51Y21.64
X-36.51Y-38.16
X-36.51Y-97.96
X-36.226Y65.649
X-36.226Y5.849
X-36.226Y-53.951
X-36.226Y-113.751
X-36.179Y52.57
X-36.179Y-7.23
X-36.179Y-67.03
X-36.179Y-126.83
X-36.144Y80.336
X-36.144Y20.536
X-36.144Y-39.264
X-36.144Y-99.064
X-35.865Y53.75
X-35.865Y-6.05
X-35.865Y-65.85
X-35.865Y-125.65
X-35.859Y67.962
X-35.859Y8.162
X-35.859Y-51.638
X-35.859Y-111.438
X-35.615Y61.947
X-35.615Y2.147
X-35.615Y-57.653
X-35.615Y-117.453
X-35.426Y65.126
X-35.426Y5.326
X-35.426Y-54.474
X-35.426Y-114.274
X-35.33Y67.826
X-35.33Y8.026
X-35.33Y-51.774
X-35.33Y-111.574
X-35.278Y54.182
X-35.278Y-5.618
X-35.278Y-65.418
X-35.278Y-125.218
X-35.152Y67.3
X-35.152Y7.5
X-35.152Y-52.3
X-35.152Y-112.1
X-35.107Y45.651
X-35.107Y-14.149
X-35.107Y-73.949
X-35.107Y-133.749
X-34.832Y68.051
X-34.832Y8.251
X-34.832Y-51.549
X-34.832Y-111.349
X-34.651Y55.075
X-34.651Y-4.725
X-34.651Y-64.525
X-34.651Y-124.325
X-34.625Y54.182
X-34.625Y-5.618
X-34.625Y-65.418
X-34.625Y-125.218
X-34.352Y67.267
X-34.352Y7.467
X-34.352Y-52.333
X-34.352Y-112.133
X-34.0Y54.821
X-34.0Y-4.979
X-34.0Y-64.779
X-34.0Y-124.579
X-33.417Y85.57
X-33.417Y25.77
X-33.417Y-34.03
X-33.417Y-93.83
X-33.076Y44.648
X-33.076Y-15.152
X-33.076Y-74.952
X-33.076Y-134.752
X-32.835Y76.065
X-32.835Y16.265
X-32.835Y-43.535
X-32.835Y-103.335
X-32.693Y70.14
X-32.693Y10.34
X-32.693Y-49.46
X-32.693Y-109.26
X-32.26Y76.84
X-32.26Y17.04
X-32.26Y-42.76
X-32.26Y-102.56
X-32.187Y44.648
X-32.187Y-15.152
X-32.187Y-74.952
X-32.187Y-134.752
X-32.06Y47.95
X-32.06Y-11.85
X-32.06Y-71.65
X-32.06Y-131.45
X-31.146Y81.54
X-31.146Y21.74
X-31.146Y-38.06
X-31.146Y-97.86
X-30.764Y46.052
X-30.764Y-13.748
X-30.764Y-73.548
X-30.764Y-133.348
X-30.496Y76.553
X-30.496Y16.753
X-30.496Y-43.047
X-30.496Y-102.847
X-29.241Y67.79
X-29.241Y7.99
X-29.241Y-51.81
X-29.241Y-111.61
X-28.464Y40.739
X-28.464Y-19.061
X-28.464Y-78.861
X-28.464Y-138.661
X-28.083Y85.824
X-28.083Y26.024
X-28.083Y-33.776
X-28.083Y-93.576
X-27.565Y81.554
X-27.565Y21.754
X-27.565Y-38.046
X-27.565Y-97.846
X-27.51Y79.14
X-27.51Y19.34
X-27.51Y-40.46
X-27.51Y-100.26
X-27.194Y76.553
X-27.194Y16.753
X-27.194Y-43.047
X-27.194Y-102.847
X-26.813Y84.935
X-26.813Y25.135
X-26.813Y-34.665
X-26.813Y-94.465
X-22.919Y82.755
X-22.919Y22.955
X-22.919Y-36.845
X-22.919Y-96.645
X-22.749Y51.77
X-22.749Y-8.03
X-22.749Y-67.83
X-22.749Y-127.63
X-21.51Y77.44
X-21.51Y17.64
X-21.51Y-42.16
X-21.51Y-101.96
X-19.387Y51.695
X-19.387Y-8.105
X-19.387Y-67.905
X-19.387Y-127.705
X-19.208Y77.913
X-19.208Y18.113
X-19.208Y-41.687
X-19.208Y-101.487
X-18.905Y54.015
X-18.905Y-5.785
X-18.905Y-65.585
X-18.905Y-125.385
X-18.827Y71.491
X-18.827Y11.691
X-18.827Y-48.109
X-18.827Y-107.909
X-18.827Y69.566
X-18.827Y9.766
X-18.827Y-50.034
X-18.827Y-109.834
X-17.557Y58.283
X-17.557Y-1.517
X-17.557Y-61.317
X-17.557Y-121.117
X-17.176Y69.713
X-17.176Y9.913
X-17.176Y-49.887
X-17.176Y-109.687
X-17.049Y57.902
X-17.049Y-1.898
X-17.049Y-61.698
X-17.049Y-121.498
X-17.044Y51.176
X-17.044Y-8.624
X-17.044Y-68.424
X-17.044Y-128.224
X-16.922Y49.478
X-16.922Y-10.322
X-16.922Y-70.122
X-16.922Y-129.922
X-16.287Y74.285
X-16.287Y72.068
X-16.287Y14.485
X-16.287Y12.268
X-16.287Y-45.315
X-16.287Y-47.532
X-16.287Y-105.115
X-16.287Y-107.332
X-15.673Y79.354
X-15.673Y19.554
X-15.673Y-40.246
X-15.673Y-100.047
X-15.465Y43.297
X-15.465Y-16.503
X-15.465Y-76.303
X-15.465Y-136.103
X-15.017Y81.905
X-15.017Y22.105
X-15.017Y-37.695
X-15.017Y-97.495
X-14.88Y63.598
X-14.88Y3.798
X-14.88Y-56.002
X-14.88Y-115.802
X-14.763Y41.202
X-14.763Y-18.599
X-14.763Y-78.399
X-14.763Y-138.199
X-14.51Y74.44
X-14.51Y14.64
X-14.51Y-45.16
X-14.51Y-104.96
X-14.331Y47.963
X-14.331Y-11.837
X-14.331Y-71.637
X-14.331Y-131.437
X-14.255Y81.905
X-14.255Y22.105
X-14.255Y-37.695
X-14.255Y-97.495
X-14.14Y48.598
X-14.14Y47.412
X-14.14Y-11.202
X-14.14Y-12.388
X-14.14Y-71.002
X-14.14Y-72.188
X-14.14Y-130.802
X-14.14Y-131.989
X-13.351Y77.913
X-13.351Y18.113
X-13.351Y-41.687
X-13.351Y-101.487
X-12.208Y74.775
X-12.208Y14.975
X-12.208Y-44.825
X-12.208Y-104.625
X-10.877Y77.913
X-10.877Y18.113
X-10.877Y-41.687
X-10.877Y-101.487
X-10.811Y63.297
X-10.811Y3.497
X-10.811Y-56.303
X-10.811Y-116.103
X-9.945Y41.773
X-9.945Y-18.027
X-9.945Y-77.827
X-9.945Y-137.627
X-9.683Y43.932
X-9.683Y-15.868
X-9.683Y-75.668
X-9.683Y-135.468
X-9.429Y64.76
X-9.429Y4.96
X-9.429Y-54.84
X-9.429Y-114.64
X-8.921Y44.567
X-8.921Y-15.233
X-8.921Y-75.033
X-8.921Y-134.833
X-8.667Y67.554
X-8.667Y7.754
X-8.667Y-52.046
X-8.667Y-111.846
X-8.585Y60.533
X-8.585Y0.733
X-8.585Y-59.067
X-8.585Y-118.867
X-8.393Y77.913
X-8.393Y18.113
X-8.393Y-41.687
X-8.393Y-101.487
X-8.001Y60.276
X-8.001Y0.476
X-8.001Y-59.324
X-8.001Y-119.124
X-7.902Y52.261
X-7.902Y-7.539
X-7.902Y-67.339
X-7.902Y-127.139
X-7.168Y59.38
X-7.168Y-0.42
X-7.168Y-60.22
X-7.168Y-120.02
X-5.39Y65.857
X-5.39Y6.057
X-5.39Y-53.743
X-5.39Y-113.543
X-4.934Y71.638
X-4.934Y11.838
X-4.934Y-47.962
X-4.934Y-107.762
X-4.745Y79.748
X-4.745Y19.948
X-4.745Y-39.852
X-4.745Y-99.652
X-4.73Y74.666
X-4.73Y14.866
X-4.73Y-44.934
X-4.73Y-104.734
X-3.51Y55.84
X-3.51Y-3.96
X-3.51Y-63.76
X-3.51Y-123.56
X-3.318Y37.437
X-3.318Y-22.363
X-3.318Y-82.163
X-3.318Y-141.963
X17.58Y62.174
X17.58Y2.374
X17.58Y-57.426
X17.58Y-117.226
X17.796Y69.078
X17.796Y9.278
X17.796Y-50.522
X17.796Y-110.322
X17.961Y61.412
X17.961Y1.612
X17.961Y-58.188
X17.961Y-117.988
X18.19Y72.72
X18.19Y12.92
X18.19Y-46.88
X18.19Y-106.68
X18.215Y75.001
X18.215Y72.08
X18.215Y15.201
X18.215Y12.28
X18.215Y-44.599
X18.215Y-47.52
X18.215Y-104.399
X18.215Y-107.32
X18.24Y47.996
X18.24Y45.202
X18.24Y-11.804
X18.24Y-14.598
X18.24Y-71.604
X18.24Y-74.398
X18.24Y-131.404
X18.24Y-134.198
X19.891Y45.202
X19.891Y-14.598
X19.891Y-74.398
X19.891Y-134.198
X21.07Y59.54
X21.07Y-0.26
X21.07Y-60.06
X21.07Y-119.86
X21.87Y58.14
X21.87Y-1.66
X21.87Y-61.46
X21.87Y-121.26
X22.77Y44.24
X22.77Y-15.56
X22.77Y-75.36
X22.77Y-135.16
X23.066Y47.996
X23.066Y-11.804
X23.066Y-71.604
X23.066Y-131.404
X23.132Y44.873
X23.132Y-14.927
X23.132Y-74.727
X23.132Y-134.527
X23.27Y72.69
X23.27Y58.04
X23.27Y12.89
X23.27Y-1.76
X23.27Y-46.91
X23.27Y-61.56
X23.27Y-106.71
X23.27Y-121.36
X23.397Y45.804
X23.397Y-13.996
X23.397Y-73.796
X23.397Y-133.596
X23.987Y44.017
X23.987Y-15.783
X23.987Y-75.583
X23.987Y-135.383
X24.04Y51.683
X24.04Y-8.117
X24.04Y-67.917
X24.04Y-127.717
X24.29Y49.02
X24.29Y-10.78
X24.29Y-70.58
X24.29Y-130.38
X24.415Y47.545
X24.415Y-12.255
X24.415Y-72.055
X24.415Y-131.855
X24.57Y65.84
X24.57Y6.04
X24.57Y-53.76
X24.57Y-113.56
X24.77Y58.14
X24.77Y-1.66
X24.77Y-61.46
X24.77Y-121.26
X25.352Y72.126
X25.352Y12.326
X25.352Y-47.474
X25.352Y-107.274
X27.17Y65.84
X27.17Y6.04
X27.17Y-53.76
X27.17Y-113.56
X27.299Y77.707
X27.299Y17.907
X27.299Y-41.893
X27.299Y-101.693
X27.857Y50.253
X27.857Y-9.547
X27.857Y-69.347
X27.857Y-129.147
X27.87Y45.64
X27.87Y-14.16
X27.87Y-73.96
X27.87Y-133.76
X29.19Y75.62
X29.19Y15.82
X29.19Y-43.98
X29.19Y-103.78
X29.29Y77.82
X29.29Y18.02
X29.29Y-41.78
X29.29Y-101.58
X29.39Y81.32
X29.39Y21.52
X29.39Y-38.28
X29.39Y-98.08
X29.47Y48.04
X29.47Y-11.76
X29.47Y-71.56
X29.47Y-131.36
X29.67Y72.64
X29.67Y71.364
X29.67Y65.84
X29.67Y12.84
X29.67Y11.564
X29.67Y6.04
X29.67Y-46.96
X29.67Y-48.236
X29.67Y-53.76
X29.67Y-106.76
X29.67Y-108.036
X29.67Y-113.56
X29.676Y66.533
X29.676Y6.732
X29.676Y-53.068
X29.676Y-112.868
X30.27Y49.24
X30.27Y-10.56
X30.27Y-70.36
X30.27Y-130.16
X30.59Y81.32
X30.59Y21.52
X30.59Y-38.28
X30.59Y-98.08
X30.79Y77.82
X30.79Y18.02
X30.79Y-41.78
X30.79Y-101.58
X30.921Y49.463
X30.921Y-10.337
X30.921Y-70.137
X30.921Y-129.937
X30.99Y75.52
X30.99Y15.72
X30.99Y-44.08
X30.99Y-103.88
X31.153Y49.957
X31.153Y-9.843
X31.153Y-69.643
X31.153Y-129.443
X31.832Y50.278
X31.832Y-9.522
X31.832Y-69.322
X31.832Y-129.122
X32.591Y74.666
X32.591Y14.866
X32.591Y-44.934
X32.591Y-104.734
X32.69Y77.42
X32.69Y17.62
X32.69Y-42.18
X32.69Y-101.98
X33.036Y50.663
X33.036Y-9.137
X33.036Y-68.937
X33.036Y-128.737
X33.79Y77.82
X33.79Y18.02
X33.79Y-41.78
X33.79Y-101.58
X34.059Y62.924
X34.059Y3.124
X34.059Y-56.676
X34.059Y-116.476
X34.229Y50.663
X34.229Y-9.137
X34.229Y-68.937
X34.229Y-128.737
X34.75Y71.364
X34.75Y11.564
X34.75Y-48.236
X34.75Y-108.036
X35.49Y77.52
X35.49Y17.72
X35.49Y-42.08
X35.49Y-101.88
X36.72Y52.34
X36.72Y-7.46
X36.72Y-67.26
X36.72Y-127.06
X37.47Y55.64
X37.47Y-4.16
X37.47Y-63.96
X37.47Y-123.76
X37.75Y51.22
X37.75Y-8.58
X37.75Y-68.38
X37.75Y-128.18
X37.757Y60.153
X37.757Y0.353
X37.757Y-59.447
X37.757Y-119.247
X37.798Y82.032
X37.798Y22.232
X37.798Y-37.568
X37.798Y-97.368
X38.584Y55.068
X38.584Y-4.732
X38.584Y-64.532
X38.584Y-124.332
X39.692Y54.125
X39.692Y-5.675
X39.692Y-65.475
X39.692Y-125.275
X39.78Y53.424
X39.78Y-6.376
X39.78Y-66.176
X39.78Y-125.976
X40.084Y72.38
X40.084Y12.58
X40.084Y-47.22
X40.084Y-107.02
X40.147Y57.426
X40.147Y-2.374
X40.147Y-62.174
X40.147Y-121.974
X40.47Y75.04
X40.47Y15.24
X40.47Y-44.56
X40.47Y-104.36
X40.716Y82.508
X40.716Y22.708
X40.716Y-37.092
X40.716Y-96.892
X40.721Y58.879
X40.721Y-0.921
X40.721Y-60.721
X40.721Y-120.521
X40.87Y74.24
X40.87Y14.44
X40.87Y-45.36
X40.87Y-105.16
X40.89Y44.694
X40.89Y-15.106
X40.89Y-74.906
X40.89Y-134.706
X40.908Y52.162
X40.908Y-7.638
X40.908Y-67.438
X40.908Y-127.238
X41.183Y49.444
X41.183Y-10.356
X41.183Y-70.156
X41.183Y-129.956
X41.592Y43.074
X41.592Y-16.727
X41.592Y-76.527
X41.592Y-136.327
X41.67Y47.04
X41.67Y-12.76
X41.67Y-72.56
X41.67Y-132.36
X41.992Y41.832
X41.992Y-17.968
X41.992Y-77.768
X41.992Y-137.568
X42.19Y39.92
X42.19Y-19.88
X42.19Y-79.68
X42.19Y-139.48
X42.373Y61.709
X42.373Y1.909
X42.373Y-57.891
X42.373Y-117.691
X42.47Y40.84
X42.47Y-18.96
X42.47Y-78.76
X42.47Y-138.56
X42.67Y54.04
X42.67Y52.74
X42.67Y48.883
X42.67Y-5.76
X42.67Y-7.06
X42.67Y-10.917
X42.67Y-65.56
X42.67Y-66.86
X42.67Y-70.717
X42.67Y-125.36
X42.67Y-126.66
X42.67Y-130.517
X42.794Y59.639
X42.794Y-0.161
X42.794Y-59.961
X42.794Y-119.761
X43.553Y58.292
X43.553Y-1.508
X43.553Y-61.308
X43.553Y-121.108
X44.021Y83.556
X44.021Y23.756
X44.021Y-36.044
X44.021Y-95.844
X45.01Y61.873
X45.01Y2.073
X45.01Y-57.727
X45.01Y-117.527
X45.29Y65.725
X45.29Y5.925
X45.29Y-53.875
X45.29Y-113.676
X45.36Y60.486
X45.36Y0.686
X45.36Y-59.114
X45.36Y-118.914
X45.436Y64.861
X45.436Y5.061
X45.436Y-54.739
X45.436Y-114.539
X45.933Y60.461
X45.933Y0.661
X45.933Y-59.139
X45.933Y-118.939
X45.97Y38.54
X45.97Y-21.26
X45.97Y-81.06
X45.97Y-140.86
X45.982Y45.852
X45.982Y-13.948
X45.982Y-73.748
X45.982Y-133.548
X46.17Y43.54
X46.17Y-16.26
X46.17Y-76.06
X46.17Y-135.86
X46.18Y68.634
X46.18Y8.833
X46.18Y-50.967
X46.18Y-110.767
X46.225Y65.44
X46.225Y5.64
X46.225Y-54.16
X46.225Y-113.96
X46.37Y62.858
X46.37Y3.058
X46.37Y-56.742
X46.37Y-116.542
X46.601Y58.899
X46.601Y-0.901
X46.601Y-60.701
X46.601Y-120.501
X46.625Y68.951
X46.625Y9.151
X46.625Y-50.649
X46.625Y-110.449
X46.67Y47.047
X46.67Y-12.753
X46.67Y-72.553
X46.67Y-132.353
X46.707Y64.764
X46.707Y4.964
X46.707Y-54.836
X46.707Y-114.636
X46.745Y66.167
X46.745Y6.367
X46.745Y-53.433
X46.745Y-113.233
X46.819Y60.471
X46.819Y0.671
X46.819Y-59.129
X46.819Y-118.929
X46.821Y59.399
X46.821Y-0.401
X46.821Y-60.201
X46.821Y-120.001
X46.825Y63.185
X46.825Y3.385
X46.825Y-56.415
X46.825Y-116.215
X46.913Y45.867
X46.913Y-13.933
X46.913Y-73.733
X46.913Y-133.533
X47.057Y55.188
X47.057Y-4.612
X47.057Y-64.412
X47.057Y-124.212
X47.203Y56.812
X47.203Y-2.988
X47.203Y-62.788
X47.203Y-122.588
X47.29Y71.814
X47.29Y12.014
X47.29Y-47.786
X47.29Y-107.586
X47.298Y68.634
X47.298Y8.833
X47.298Y-50.967
X47.298Y-110.767
X47.337Y42.372
X47.337Y-17.428
X47.337Y-77.228
X47.337Y-137.029
X47.37Y40.24
X47.37Y-19.56
X47.37Y-79.36
X47.37Y-139.16
X47.375Y65.254
X47.375Y5.454
X47.375Y-54.346
X47.375Y-114.146
X47.514Y66.201
X47.514Y6.401
X47.514Y-53.399
X47.514Y-113.199
X47.563Y58.991
X47.563Y-0.809
X47.563Y-60.609
X47.563Y-120.409
X47.612Y43.219
X47.612Y-16.581
X47.612Y-76.381
X47.612Y-136.181
X47.677Y54.65
X47.677Y-5.15
X47.677Y-64.95
X47.677Y-124.75
X47.681Y55.735
X47.681Y-4.065
X47.681Y-63.865
X47.681Y-123.665
X47.713Y57.044
X47.713Y-2.756
X47.713Y-62.556
X47.713Y-122.356
X47.737Y68.996
X47.737Y9.196
X47.737Y-50.604
X47.737Y-110.404
X48.002Y60.508
X48.002Y0.708
X48.002Y-59.092
X48.002Y-118.892
X48.085Y68.062
X48.085Y8.262
X48.085Y-51.538
X48.085Y-111.338
X48.099Y57.43
X48.099Y-2.37
X48.099Y-62.17
X48.099Y-121.97
X48.118Y56.189
X48.118Y-3.611
X48.118Y-63.411
X48.118Y-123.211
X48.124Y65.186
X48.124Y5.386
X48.124Y-54.414
X48.124Y-114.214
X48.129Y53.627
X48.129Y-6.173
X48.129Y-65.973
X48.129Y-125.773
X48.227Y81.76
X48.227Y21.96
X48.227Y-37.84
X48.227Y-97.64
X48.27Y70.84
X48.27Y11.04
X48.27Y-48.76
X48.27Y-108.56
X48.47Y71.414
X48.47Y11.614
X48.47Y-48.186
X48.47Y-107.986
X48.778Y53.914
X48.778Y-5.886
X48.778Y-65.686
X48.778Y-125.486
X49.051Y71.153
X49.051Y11.353
X49.051Y-48.447
X49.051Y-108.247
X49.07Y68.412
X49.07Y62.84
X49.07Y8.612
X49.07Y3.04
X49.07Y-51.188
X49.07Y-56.76
X49.07Y-110.988
X49.07Y-116.56
X49.073Y59.637
X49.073Y-0.163
X49.073Y-59.963
X49.073Y-119.763
X49.084Y69.212
X49.084Y9.412
X49.084Y-50.388
X49.084Y-110.188
X49.215Y54.249
X49.215Y-5.551
X49.215Y-65.351
X49.215Y-125.151
X49.22Y47.04
X49.22Y-12.76
X49.22Y-72.56
X49.22Y-132.36
X49.289Y52.905
X49.289Y-6.895
X49.289Y-66.695
X49.289Y-126.495
X49.452Y70.012
X49.452Y10.212
X49.452Y-49.588
X49.452Y-109.388
X49.47Y70.64
X49.47Y10.84
X49.47Y-48.96
X49.47Y-108.76
X49.67Y45.64
X49.67Y-14.16
X49.67Y-73.96
X49.67Y-133.76
X49.67Y71.24
X49.67Y38.99
X49.67Y11.44
X49.67Y-20.81
X49.67Y-48.36
X49.67Y-80.61
X49.67Y-108.16
X49.67Y-140.41
X49.867Y58.038
X49.867Y-1.762
X49.867Y-61.562
X49.867Y-121.362
X49.87Y62.84
X49.87Y3.04
X49.87Y-56.76
X49.87Y-116.56
X49.87Y67.64
X49.87Y66.84
X49.87Y66.04
X49.87Y65.24
X49.87Y64.44
X49.87Y63.64
X49.87Y62.04
X49.87Y59.637
X49.87Y58.84
X49.87Y56.44
X49.87Y55.64
X49.87Y54.84
X49.87Y7.84
X49.87Y7.04
X49.87Y6.24
X49.87Y5.44
X49.87Y4.64
X49.87Y3.84
X49.87Y2.24
X49.87Y-0.163
X49.87Y-0.96
X49.87Y-3.36
X49.87Y-4.16
X49.87Y-4.96
X49.87Y-51.96
X49.87Y-52.76
X49.87Y-53.56
X49.87Y-54.36
X49.87Y-55.16
X49.87Y-55.96
X49.87Y-57.56
X49.87Y-59.963
X49.87Y-60.76
X49.87Y-63.16
X49.87Y-63.96
X49.87Y-64.76
X49.87Y-111.76
X49.87Y-112.56
X49.87Y-113.36
X49.87Y-114.16
X49.87Y-114.96
X49.87Y-115.76
X49.87Y-117.36
X49.87Y-119.763
X49.87Y-120.56
X49.87Y-122.96
X49.87Y-123.76
X49.87Y-124.56
X49.873Y60.437
X49.873Y0.637
X49.873Y-59.163
X49.873Y-118.963
X50.049Y52.853
X50.049Y-6.947
X50.049Y-66.747
X50.049Y-126.547
X50.12Y39.44
X50.12Y-20.36
X50.12Y-80.16
X50.12Y-139.96
X50.27Y70.726
X50.27Y10.926
X50.27Y-48.874
X50.27Y-108.674
X50.285Y72.565
X50.285Y12.765
X50.285Y-47.035
X50.285Y-106.835
X50.289Y71.951
X50.289Y12.151
X50.289Y-47.649
X50.289Y-107.449
X50.346Y84.78
X50.346Y24.98
X50.346Y-34.82
X50.346Y-94.62
X50.47Y46.444
X50.47Y-13.356
X50.47Y-73.156
X50.47Y-132.956
X50.473Y82.367
X50.473Y22.567
X50.473Y-37.233
X50.473Y-97.033
X50.589Y52.452
X50.589Y-7.348
X50.589Y-67.148
X50.589Y-126.948
X50.62Y38.94
X50.62Y-20.86
X50.62Y-80.66
X50.62Y-140.46
X50.663Y67.64
X50.663Y7.84
X50.663Y-51.96
X50.663Y-111.76
X50.67Y66.84
X50.67Y66.04
X50.67Y65.24
X50.67Y64.44
X50.67Y63.64
X50.67Y60.44
X50.67Y59.64
X50.67Y58.84
X50.67Y58.04
X50.67Y57.24
X50.67Y56.44
X50.67Y55.64
X50.67Y54.84
X50.67Y7.04
X50.67Y6.24
X50.67Y5.44
X50.67Y4.64
X50.67Y3.84
X50.67Y0.64
X50.67Y-0.16
X50.67Y-0.96
X50.67Y-1.76
X50.67Y-2.56
X50.67Y-3.36
X50.67Y-4.16
X50.67Y-4.96
X50.67Y-52.76
X50.67Y-53.56
X50.67Y-54.36
X50.67Y-55.16
X50.67Y-55.96
X50.67Y-59.16
X50.67Y-59.96
X50.67Y-60.76
X50.67Y-61.56
X50.67Y-62.36
X50.67Y-63.16
X50.67Y-63.96
X50.67Y-64.76
X50.67Y-112.56
X50.67Y-113.36
X50.67Y-114.16
X50.67Y-114.96
X50.67Y-115.76
X50.67Y-118.96
X50.67Y-119.76
X50.67Y-120.56
X50.67Y-121.36
X50.67Y-122.16
X50.67Y-122.96
X50.67Y-123.76
X50.67Y-124.56
X50.675Y62.04
X50.675Y2.24
X50.675Y-57.56
X50.675Y-117.36
X50.971Y53.286
X50.971Y-6.514
X50.971Y-66.314
X50.971Y-126.114
X51.125Y39.445
X51.125Y-20.355
X51.125Y-80.155
X51.125Y-139.955
X51.238Y46.24
X51.238Y-13.56
X51.238Y-73.36
X51.238Y-133.16
X51.463Y67.64
X51.463Y7.84
X51.463Y-51.96
X51.463Y-111.76
X51.465Y62.04
X51.465Y2.24
X51.465Y-57.56
X51.465Y-117.36
X51.47Y66.84
X51.47Y66.04
X51.47Y65.24
X51.47Y64.44
X51.47Y63.64
X51.47Y61.24
X51.47Y60.44
X51.47Y58.84
X51.47Y57.24
X51.47Y56.44
X51.47Y55.64
X51.47Y7.04
X51.47Y6.24
X51.47Y5.44
X51.47Y4.64
X51.47Y3.84
X51.47Y1.44
X51.47Y0.64
X51.47Y-0.96
X51.47Y-2.56
X51.47Y-3.36
X51.47Y-4.16
X51.47Y-52.76
X51.47Y-53.56
X51.47Y-54.36
X51.47Y-55.16
X51.47Y-55.96
X51.47Y-58.36
X51.47Y-59.16
X51.47Y-60.76
X51.47Y-62.36
X51.47Y-63.16
X51.47Y-63.96
X51.47Y-112.56
X51.47Y-113.36
X51.47Y-114.16
X51.47Y-114.96
X51.47Y-115.76
X51.47Y-118.16
X51.47Y-118.96
X51.47Y-120.56
X51.47Y-122.16
X51.47Y-122.96
X51.47Y-123.76
X51.701Y52.868
X51.701Y-6.932
X51.701Y-66.732
X51.701Y-126.532
X52.07Y52.44
X52.07Y-7.36
X52.07Y-67.16
X52.07Y-126.96
X52.074Y71.585
X52.074Y11.785
X52.074Y-48.015
X52.074Y-107.815
X52.146Y72.3
X52.146Y12.5
X52.146Y-47.3
X52.146Y-107.1
X52.254Y54.04
X52.254Y-5.76
X52.254Y-65.56
X52.254Y-125.36
X52.263Y67.64
X52.263Y7.84
X52.263Y-51.96
X52.263Y-111.76
X52.27Y54.84
X52.27Y-4.96
X52.27Y-64.76
X52.27Y-124.56
X52.27Y66.84
X52.27Y66.04
X52.27Y65.24
X52.27Y58.04
X52.27Y7.04
X52.27Y6.24
X52.27Y5.44
X52.27Y-1.76
X52.27Y-52.76
X52.27Y-53.56
X52.27Y-54.36
X52.27Y-61.56
X52.27Y-112.56
X52.27Y-113.36
X52.27Y-114.16
X52.27Y-121.36
X52.324Y61.23
X52.324Y1.43
X52.324Y-58.37
X52.324Y-118.17
X52.47Y40.69
X52.47Y-19.11
X52.47Y-78.91
X52.47Y-138.71
X52.861Y70.442
X52.861Y10.642
X52.861Y-49.158
X52.861Y-108.958
X52.886Y84.78
X52.886Y24.98
X52.886Y-34.82
X52.886Y-94.62
X52.919Y71.024
X52.919Y11.224
X52.919Y-48.576
X52.919Y-108.376
X52.97Y52.54
X52.97Y-7.26
X52.97Y-67.06
X52.97Y-126.86
X53.063Y67.64
X53.063Y7.84
X53.063Y-51.96
X53.063Y-111.76
X53.07Y54.84
X53.07Y-4.96
X53.07Y-64.76
X53.07Y-124.56
X53.07Y54.04
X53.07Y-5.76
X53.07Y-65.56
X53.07Y-125.36
X53.07Y68.44
X53.07Y66.84
X53.07Y66.04
X53.07Y64.44
X53.07Y63.64
X53.07Y62.84
X53.07Y62.04
X53.07Y44.14
X53.07Y8.64
X53.07Y7.04
X53.07Y6.24
X53.07Y4.64
X53.07Y3.84
X53.07Y3.04
X53.07Y2.24
X53.07Y-15.66
X53.07Y-51.16
X53.07Y-52.76
X53.07Y-53.56
X53.07Y-55.16
X53.07Y-55.96
X53.07Y-56.76
X53.07Y-57.56
X53.07Y-75.46
X53.07Y-110.96
X53.07Y-112.56
X53.07Y-113.36
X53.07Y-114.96
X53.07Y-115.76
X53.07Y-116.56
X53.07Y-117.36
X53.07Y-135.26
X53.114Y59.684
X53.114Y-0.116
X53.114Y-59.916
X53.114Y-119.716
X53.272Y72.31
X53.272Y12.51
X53.272Y-47.29
X53.272Y-107.09
X53.426Y71.786
X53.426Y11.986
X53.426Y-47.814
X53.426Y-107.614
X53.47Y52.94
X53.47Y-6.86
X53.47Y-66.66
X53.47Y-126.46
X53.474Y70.986
X53.474Y11.186
X53.474Y-48.614
X53.474Y-108.414
X53.52Y41.44
X53.52Y-18.36
X53.52Y-78.16
X53.52Y-137.96
X53.57Y42.94
X53.57Y-16.86
X53.57Y-76.66
X53.57Y-136.46
X53.62Y46.19
X53.62Y-13.61
X53.62Y-73.41
X53.62Y-133.21
X53.77Y38.54
X53.77Y-21.26
X53.77Y-81.06
X53.77Y-140.86
X53.863Y67.64
X53.863Y7.84
X53.863Y-51.96
X53.863Y-111.76
X53.87Y66.84
X53.87Y66.04
X53.87Y64.44
X53.87Y61.24
X53.87Y56.44
X53.87Y55.64
X53.87Y41.94
X53.87Y7.04
X53.87Y6.24
X53.87Y4.64
X53.87Y1.44
X53.87Y-3.36
X53.87Y-4.16
X53.87Y-17.86
X53.87Y-52.76
X53.87Y-53.56
X53.87Y-55.16
X53.87Y-58.36
X53.87Y-63.16
X53.87Y-63.96
X53.87Y-77.66
X53.87Y-112.56
X53.87Y-113.36
X53.87Y-114.96
X53.87Y-118.16
X53.87Y-122.96
X53.87Y-123.76
X53.87Y-137.46
X53.998Y71.621
X53.998Y11.821
X53.998Y-47.979
X53.998Y-107.779
X54.27Y52.94
X54.27Y-6.86
X54.27Y-66.66
X54.27Y-126.46
X54.615Y73.543
X54.615Y13.743
X54.615Y-46.057
X54.615Y-105.858
X54.67Y66.04
X54.67Y64.44
X54.67Y62.84
X54.67Y59.64
X54.67Y56.44
X54.67Y55.64
X54.67Y54.04
X54.67Y6.24
X54.67Y4.64
X54.67Y3.04
X54.67Y-0.16
X54.67Y-3.36
X54.67Y-4.16
X54.67Y-5.76
X54.67Y-53.56
X54.67Y-55.16
X54.67Y-56.76
X54.67Y-59.96
X54.67Y-63.16
X54.67Y-63.96
X54.67Y-65.56
X54.67Y-113.36
X54.67Y-114.96
X54.67Y-116.56
X54.67Y-119.76
X54.67Y-122.96
X54.67Y-123.76
X54.67Y-125.36
X54.717Y71.152
X54.717Y11.352
X54.717Y-48.448
X54.717Y-108.248
X54.798Y71.756
X54.798Y11.956
X54.798Y-47.844
X54.798Y-107.644
X54.964Y72.415
X54.964Y12.615
X54.964Y-47.185
X54.964Y-106.985
X55.07Y53.44
X55.07Y-6.36
X55.07Y-66.16
X55.07Y-125.96
X55.106Y57.804
X55.106Y-1.996
X55.106Y-61.796
X55.106Y-121.596
X55.318Y74.088
X55.318Y14.288
X55.318Y-45.512
X55.318Y-105.312
X55.47Y67.64
X55.47Y64.44
X55.47Y60.44
X55.47Y59.64
X55.47Y55.64
X55.47Y54.04
X55.47Y7.84
X55.47Y4.64
X55.47Y0.64
X55.47Y-0.16
X55.47Y-4.16
X55.47Y-5.76
X55.47Y-51.96
X55.47Y-55.16
X55.47Y-59.16
X55.47Y-59.96
X55.47Y-63.96
X55.47Y-65.56
X55.47Y-111.76
X55.47Y-114.96
X55.47Y-118.96
X55.47Y-119.76
X55.47Y-123.76
X55.47Y-125.36
X55.87Y53.44
X55.87Y-6.36
X55.87Y-66.16
X55.87Y-125.96
X56.172Y71.477
X56.172Y11.677
X56.172Y-48.123
X56.172Y-107.923
X56.27Y60.44
X56.27Y59.64
X56.27Y54.04
X56.27Y0.64
X56.27Y-0.16
X56.27Y-5.76
X56.27Y-59.16
X56.27Y-59.96
X56.27Y-65.56
X56.27Y-118.96
X56.27Y-119.76
X56.27Y-125.36
X56.519Y70.76
X56.519Y10.959
X56.519Y-48.841
X56.519Y-108.641
X56.77Y47.24
X56.77Y46.34
X56.77Y-12.56
X56.77Y-13.46
X56.77Y-72.36
X56.77Y-73.26
X56.77Y-132.16
X56.77Y-133.06
X56.836Y70.125
X56.836Y10.324
X56.836Y-49.476
X56.836Y-109.276
X56.99Y82.903
X56.99Y23.103
X56.99Y-36.697
X56.99Y-96.497
X57.07Y67.64
X57.07Y64.44
X57.07Y60.44
X57.07Y59.64
X57.07Y55.64
X57.07Y54.04
X57.07Y53.24
X57.07Y7.84
X57.07Y4.64
X57.07Y0.64
X57.07Y-0.16
X57.07Y-4.16
X57.07Y-5.76
X57.07Y-6.56
X57.07Y-51.96
X57.07Y-55.16
X57.07Y-59.16
X57.07Y-59.96
X57.07Y-63.96
X57.07Y-65.56
X57.07Y-66.36
X57.07Y-111.76
X57.07Y-114.96
X57.07Y-118.96
X57.07Y-119.76
X57.07Y-123.76
X57.07Y-125.36
X57.07Y-126.16
X57.344Y69.617
X57.344Y9.816
X57.344Y-49.984
X57.344Y-109.784
X57.766Y73.269
X57.766Y13.469
X57.766Y-46.331
X57.766Y-106.131
X57.85Y66.02
X57.85Y6.22
X57.85Y-53.58
X57.85Y-113.38
X57.87Y67.64
X57.87Y66.84
X57.87Y64.44
X57.87Y62.84
X57.87Y59.64
X57.87Y56.44
X57.87Y55.64
X57.87Y54.04
X57.87Y7.84
X57.87Y7.04
X57.87Y4.64
X57.87Y3.04
X57.87Y-0.16
X57.87Y-3.36
X57.87Y-4.16
X57.87Y-5.76
X57.87Y-51.96
X57.87Y-52.76
X57.87Y-55.16
X57.87Y-56.76
X57.87Y-59.96
X57.87Y-63.16
X57.87Y-63.96
X57.87Y-65.56
X57.87Y-111.76
X57.87Y-112.56
X57.87Y-114.96
X57.87Y-116.56
X57.87Y-119.76
X57.87Y-122.96
X57.87Y-123.76
X57.87Y-125.36
X57.87Y53.24
X57.87Y-6.56
X57.87Y-66.36
X57.87Y-126.16
X58.436Y73.269
X58.436Y13.469
X58.436Y-46.331
X58.436Y-106.131
X58.67Y67.64
X58.67Y66.84
X58.67Y66.04
X58.67Y64.44
X58.67Y61.24
X58.67Y57.64
X58.67Y56.44
X58.67Y55.64
X58.67Y7.84
X58.67Y7.04
X58.67Y6.24
X58.67Y4.64
X58.67Y1.44
X58.67Y-2.16
X58.67Y-3.36
X58.67Y-4.16
X58.67Y-51.96
X58.67Y-52.76
X58.67Y-53.56
X58.67Y-55.16
X58.67Y-58.36
X58.67Y-61.96
X58.67Y-63.16
X58.67Y-63.96
X58.67Y-111.76
X58.67Y-112.56
X58.67Y-113.36
X58.67Y-114.96
X58.67Y-118.16
X58.67Y-121.76
X58.67Y-122.96
X58.67Y-123.76
X59.134Y73.269
X59.134Y13.469
X59.134Y-46.331
X59.134Y-106.131
X59.249Y71.077
X59.249Y11.277
X59.249Y-48.523
X59.249Y-108.323
X59.27Y80.24
X59.27Y20.44
X59.27Y-39.36
X59.27Y-99.16
X59.37Y47.24
X59.37Y46.24
X59.37Y-12.56
X59.37Y-13.56
X59.37Y-72.36
X59.37Y-73.36
X59.37Y-132.16
X59.37Y-133.16
X59.43Y57.933
X59.43Y-1.867
X59.43Y-61.667
X59.43Y-121.467
X59.47Y66.84
X59.47Y66.04
X59.47Y64.44
X59.47Y63.64
X59.47Y62.84
X59.47Y62.04
X59.47Y59.64
X59.47Y53.24
X59.47Y7.04
X59.47Y6.24
X59.47Y4.64
X59.47Y3.84
X59.47Y3.04
X59.47Y2.24
X59.47Y-0.16
X59.47Y-6.56
X59.47Y-52.76
X59.47Y-53.56
X59.47Y-55.16
X59.47Y-55.96
X59.47Y-56.76
X59.47Y-57.56
X59.47Y-59.96
X59.47Y-66.36
X59.47Y-112.56
X59.47Y-113.36
X59.47Y-114.96
X59.47Y-115.76
X59.47Y-116.56
X59.47Y-117.36
X59.47Y-119.76
X59.47Y-126.16
X60.07Y74.84
X60.07Y15.04
X60.07Y-44.76
X60.07Y-104.56
X60.254Y70.009
X60.254Y10.209
X60.254Y-49.591
X60.254Y-109.391
X60.27Y67.64
X60.27Y66.84
X60.27Y66.02
X60.27Y65.24
X60.27Y61.24
X60.27Y54.84
X60.27Y54.04
X60.27Y53.24
X60.27Y7.84
X60.27Y7.04
X60.27Y6.22
X60.27Y5.44
X60.27Y1.44
X60.27Y-4.96
X60.27Y-5.76
X60.27Y-6.56
X60.27Y-51.96
X60.27Y-52.76
X60.27Y-53.58
X60.27Y-54.36
X60.27Y-58.36
X60.27Y-64.76
X60.27Y-65.56
X60.27Y-66.36
X60.27Y-111.76
X60.27Y-112.56
X60.27Y-113.38
X60.27Y-114.16
X60.27Y-118.16
X60.27Y-124.56
X60.27Y-125.36
X60.27Y-126.16
X60.563Y70.602
X60.563Y10.802
X60.563Y-48.998
X60.563Y-108.798
X60.576Y71.703
X60.576Y11.903
X60.576Y-47.897
X60.576Y-107.697
X61.05Y64.42
X61.05Y4.62
X61.05Y-55.18
X61.05Y-114.98
X61.07Y67.64
X61.07Y66.84
X61.07Y66.04
X61.07Y65.24
X61.07Y62.84
X61.07Y62.04
X61.07Y60.44
X61.07Y58.84
X61.07Y58.04
X61.07Y57.24
X61.07Y55.64
X61.07Y54.84
X61.07Y54.04
X61.07Y7.84
X61.07Y7.04
X61.07Y6.24
X61.07Y5.44
X61.07Y3.04
X61.07Y2.24
X61.07Y0.64
X61.07Y-0.96
X61.07Y-1.76
X61.07Y-2.56
X61.07Y-4.16
X61.07Y-4.96
X61.07Y-5.76
X61.07Y-51.96
X61.07Y-52.76
X61.07Y-53.56
X61.07Y-54.36
X61.07Y-56.76
X61.07Y-57.56
X61.07Y-59.16
X61.07Y-60.76
X61.07Y-61.56
X61.07Y-62.36
X61.07Y-63.96
X61.07Y-64.76
X61.07Y-65.56
X61.07Y-111.76
X61.07Y-112.56
X61.07Y-113.36
X61.07Y-114.16
X61.07Y-116.56
X61.07Y-117.36
X61.07Y-118.96
X61.07Y-120.56
X61.07Y-121.36
X61.07Y-122.16
X61.07Y-123.76
X61.07Y-124.56
X61.07Y-125.36
X61.209Y75.065
X61.209Y15.265
X61.209Y-44.535
X61.209Y-104.335
X61.441Y85.177
X61.441Y25.377
X61.441Y-34.423
X61.441Y-94.223
X61.499Y73.223
X61.499Y13.423
X61.499Y-46.377
X61.499Y-106.177
X61.87Y67.64
X61.87Y66.84
X61.87Y66.04
X61.87Y65.24
X61.87Y64.44
X61.87Y63.64
X61.87Y62.84
X61.87Y60.44
X61.87Y59.64
X61.87Y58.84
X61.87Y58.04
X61.87Y57.24
X61.87Y56.44
X61.87Y55.64
X61.87Y54.84
X61.87Y54.04
X61.87Y47.24
X61.87Y46.24
X61.87Y7.84
X61.87Y7.04
X61.87Y6.24
X61.87Y5.44
X61.87Y4.64
X61.87Y3.84
X61.87Y3.04
X61.87Y0.64
X61.87Y-0.16
X61.87Y-0.96
X61.87Y-1.76
X61.87Y-2.56
X61.87Y-3.36
X61.87Y-4.16
X61.87Y-4.96
X61.87Y-5.76
X61.87Y-12.56
X61.87Y-13.56
X61.87Y-51.96
X61.87Y-52.76
X61.87Y-53.56
X61.87Y-54.36
X61.87Y-55.16
X61.87Y-55.96
X61.87Y-56.76
X61.87Y-59.16
X61.87Y-59.96
X61.87Y-60.76
X61.87Y-61.56
X61.87Y-62.36
X61.87Y-63.16
X61.87Y-63.96
X61.87Y-64.76
X61.87Y-65.56
X61.87Y-72.36
X61.87Y-73.36
X61.87Y-111.76
X61.87Y-112.56
X61.87Y-113.36
X61.87Y-114.16
X61.87Y-114.96
X61.87Y-115.76
X61.87Y-116.56
X61.87Y-118.96
X61.87Y-119.76
X61.87Y-120.56
X61.87Y-121.36
X61.87Y-122.16
X61.87Y-122.96
X61.87Y-123.76
X61.87Y-124.56
X61.87Y-125.36
X61.87Y-132.16
X61.87Y-133.16
X62.309Y70.92
X62.309Y11.119
X62.309Y-48.681
X62.309Y-108.481
X62.424Y69.517
X62.424Y9.717
X62.424Y-50.083
X62.424Y-109.883
X62.67Y67.64
X62.67Y66.84
X62.67Y66.04
X62.67Y65.24
X62.67Y64.44
X62.67Y63.64
X62.67Y62.84
X62.67Y62.04
X62.67Y60.44
X62.67Y59.64
X62.67Y58.84
X62.67Y58.04
X62.67Y57.24
X62.67Y56.44
X62.67Y55.64
X62.67Y54.84
X62.67Y54.04
X62.67Y7.84
X62.67Y7.04
X62.67Y6.24
X62.67Y5.44
X62.67Y4.64
X62.67Y3.84
X62.67Y3.04
X62.67Y2.24
X62.67Y0.64
X62.67Y-0.16
X62.67Y-0.96
X62.67Y-1.76
X62.67Y-2.56
X62.67Y-3.36
X62.67Y-4.16
X62.67Y-4.96
X62.67Y-5.76
X62.67Y-51.96
X62.67Y-52.76
X62.67Y-53.56
X62.67Y-54.36
X62.67Y-55.16
X62.67Y-55.96
X62.67Y-56.76
X62.67Y-57.56
X62.67Y-59.16
X62.67Y-59.96
X62.67Y-60.76
X62.67Y-61.56
X62.67Y-62.36
X62.67Y-63.16
X62.67Y-63.96
X62.67Y-64.76
X62.67Y-65.56
X62.67Y-111.76
X62.67Y-112.56
X62.67Y-113.36
X62.67Y-114.16
X62.67Y-114.96
X62.67Y-115.76
X62.67Y-116.56
X62.67Y-117.36
X62.67Y-118.96
X62.67Y-119.76
X62.67Y-120.56
X62.67Y-121.36
X62.67Y-122.16
X62.67Y-122.96
X62.67Y-123.76
X62.67Y-124.56
X62.67Y-125.36
X63.008Y70.92
X63.008Y11.119
X63.008Y-48.681
X63.008Y-108.481
X63.47Y67.64
X63.47Y63.64
X63.47Y58.04
X63.47Y54.84
X63.47Y54.04
X63.47Y7.84
X63.47Y3.84
X63.47Y-1.76
X63.47Y-4.96
X63.47Y-5.76
X63.47Y-51.96
X63.47Y-55.96
X63.47Y-61.56
X63.47Y-64.76
X63.47Y-65.56
X63.47Y-111.76
X63.47Y-115.76
X63.47Y-121.36
X63.47Y-124.56
X63.47Y-125.36
X63.87Y80.24
X63.87Y20.44
X63.87Y-39.36
X63.87Y-99.16
X63.89Y69.22
X63.89Y9.42
X63.89Y-50.38
X63.89Y-110.18
X64.07Y53.54
X64.07Y-6.26
X64.07Y-66.06
X64.07Y-125.86
X64.103Y52.94
X64.103Y-6.86
X64.103Y-66.66
X64.103Y-126.46
X64.27Y63.64
X64.27Y3.84
X64.27Y-55.96
X64.27Y-115.76
X64.349Y77.062
X64.349Y17.262
X64.349Y-42.538
X64.349Y-102.338
X64.49Y72.685
X64.49Y12.885
X64.49Y-46.915
X64.49Y-106.715
X64.659Y73.333
X64.659Y13.532
X64.659Y-46.268
X64.659Y-106.068
X64.67Y46.24
X64.67Y-13.56
X64.67Y-73.36
X64.67Y-133.16
X65.091Y67.775
X65.091Y7.975
X65.091Y-51.825
X65.091Y-111.625
X65.134Y55.823
X65.134Y-3.977
X65.134Y-63.777
X65.134Y-123.577
X65.221Y58.84
X65.221Y-0.96
X65.221Y-60.76
X65.221Y-120.56
X65.372Y77.477
X65.372Y17.677
X65.372Y-42.123
X65.372Y-101.923
X65.402Y63.768
X65.402Y3.968
X65.402Y-55.832
X65.402Y-115.632
X65.49Y55.272
X65.49Y-4.528
X65.49Y-64.328
X65.49Y-124.129
X65.701Y61.357
X65.701Y1.557
X65.701Y-58.243
X65.701Y-118.043
X65.738Y80.381
X65.738Y20.581
X65.738Y-39.219
X65.738Y-99.019
X65.788Y53.747
X65.788Y-6.053
X65.788Y-65.853
X65.788Y-125.653
X65.992Y68.697
X65.992Y8.897
X65.992Y-50.903
X65.992Y-110.703
X66.024Y51.84
X66.024Y-7.96
X66.024Y-67.76
X66.024Y-127.56
X66.139Y55.718
X66.139Y-4.082
X66.139Y-63.882
X66.139Y-123.682
X66.274Y61.417
X66.274Y1.617
X66.274Y-58.183
X66.274Y-117.983
X66.31Y67.3
X66.31Y7.5
X66.31Y-52.3
X66.31Y-112.1
X66.323Y53.951
X66.323Y-5.849
X66.323Y-65.649
X66.323Y-125.449
X66.42Y85.616
X66.42Y25.816
X66.42Y-33.984
X66.42Y-93.784
X66.47Y81.44
X66.47Y21.64
X66.47Y-38.16
X66.47Y-97.96
X66.754Y65.649
X66.754Y5.849
X66.754Y-53.951
X66.754Y-113.751
X66.801Y52.57
X66.801Y-7.23
X66.801Y-67.03
X66.801Y-126.83
X66.836Y80.336
X66.836Y20.536
X66.836Y-39.264
X66.836Y-99.064
X67.115Y53.75
X67.115Y-6.05
X67.115Y-65.85
X67.115Y-125.65
X67.121Y67.962
X67.121Y8.162
X67.121Y-51.638
X67.121Y-111.438
X67.366Y61.947
X67.366Y2.147
X67.366Y-57.653
X67.366Y-117.453
X67.554Y65.126
X67.554Y5.326
X67.554Y-54.474
X67.554Y-114.274
X67.65Y67.826
X67.65Y8.026
X67.65Y-51.774
X67.65Y-111.574
X67.702Y54.182
X67.702Y-5.618
X67.702Y-65.418
X67.702Y-125.218
X67.828Y67.3
X67.828Y7.5
X67.828Y-52.3
X67.828Y-112.1
X67.873Y45.651
X67.873Y-14.149
X67.873Y-73.949
X67.873Y-133.749
X68.148Y68.051
X68.148Y8.251
X68.148Y-51.549
X68.148Y-111.349
X68.33Y55.075
X68.33Y-4.725
X68.33Y-64.525
X68.33Y-124.325
X68.355Y54.182
X68.355Y-5.618
X68.355Y-65.418
X68.355Y-125.218
X68.628Y67.267
X68.628Y7.467
X68.628Y-52.333
X68.628Y-112.133
X68.98Y54.821
X68.98Y-4.979
X68.98Y-64.779
X68.98Y-124.579
X69.563Y85.57
X69.563Y25.77
X69.563Y-34.03
X69.563Y-93.83
X69.904Y44.648
X69.904Y-15.152
X69.904Y-74.952
X69.904Y-134.752
X70.145Y76.065
X70.145Y16.265
X70.145Y-43.535
X70.145Y-103.335
X70.287Y70.14
X70.287Y10.34
X70.287Y-49.46
X70.287Y-109.26
X70.72Y76.84
X70.72Y17.04
X70.72Y-42.76
X70.72Y-102.56
X70.793Y44.648
X70.793Y-15.152
X70.793Y-74.952
X70.793Y-134.752
X70.92Y47.95
X70.92Y-11.85
X70.92Y-71.65
X70.92Y-131.45
X71.834Y81.54
X71.834Y21.74
X71.834Y-38.06
X71.834Y-97.86
X72.216Y46.052
X72.216Y-13.748
X72.216Y-73.548
X72.216Y-133.348
X72.484Y76.553
X72.484Y16.753
X72.484Y-43.047
X72.484Y-102.847
X73.739Y67.79
X73.739Y7.99
X73.739Y-51.81
X73.739Y-111.61
X74.516Y40.739
X74.516Y-19.061
X74.516Y-78.861
X74.516Y-138.661
X74.897Y85.824
X74.897Y26.024
X74.897Y-33.776
X74.897Y-93.576
X75.415Y81.554
X75.415Y21.754
X75.415Y-38.046
X75.415Y-97.846
X75.47Y79.14
X75.47Y19.34
X75.47Y-40.46
X75.47Y-100.26
X75.786Y76.553
X75.786Y16.753
X75.786Y-43.047
X75.786Y-102.847
X76.167Y84.935
X76.167Y25.135
X76.167Y-34.665
X76.167Y-94.465
X80.061Y82.755
X80.061Y22.955
X80.061Y-36.845
X80.061Y-96.645
X80.231Y51.77
X80.231Y-8.03
X80.231Y-67.83
X80.231Y-127.63
X81.47Y77.44
X81.47Y17.64
X81.47Y-42.16
X81.47Y-101.96
X83.593Y51.695
X83.593Y-8.105
X83.593Y-67.905
X83.593Y-127.705
X83.772Y77.913
X83.772Y18.113
X83.772Y-41.687
X83.772Y-101.487
X84.075Y54.015
X84.075Y-5.785
X84.075Y-65.585
X84.075Y-125.385
X84.153Y71.491
X84.153Y11.691
X84.153Y-48.109
X84.153Y-107.909
X84.153Y69.566
X84.153Y9.766
X84.153Y-50.034
X84.153Y-109.834
X85.423Y58.283
X85.423Y-1.517
X85.423Y-61.317
X85.423Y-121.117
X85.804Y69.713
X85.804Y9.913
X85.804Y-49.887
X85.804Y-109.687
X85.931Y57.902
X85.931Y-1.898
X85.931Y-61.698
X85.931Y-121.498
X85.936Y51.176
X85.936Y-8.624
X85.936Y-68.424
X85.936Y-128.224
X86.058Y49.478
X86.058Y-10.322
X86.058Y-70.122
X86.058Y-129.922
X86.693Y74.285
X86.693Y72.068
X86.693Y14.485
X86.693Y12.268
X86.693Y-45.315
X86.693Y-47.532
X86.693Y-105.115
X86.693Y-107.332
X87.307Y79.354
X87.307Y19.554
X87.307Y-40.246
X87.307Y-100.047
X87.515Y43.297
X87.515Y-16.503
X87.515Y-76.303
X87.515Y-136.103
X87.963Y81.905
X87.963Y22.105
X87.963Y-37.695
X87.963Y-97.495
X88.1Y63.598
X88.1Y3.798
X88.1Y-56.002
X88.1Y-115.802
X88.217Y41.202
X88.217Y-18.599
X88.217Y-78.399
X88.217Y-138.199
X88.47Y74.44
X88.47Y14.64
X88.47Y-45.16
X88.47Y-104.96
X88.65Y47.963
X88.65Y-11.837
X88.65Y-71.637
X88.65Y-131.437
X88.725Y81.905
X88.725Y22.105
X88.725Y-37.695
X88.725Y-97.495
X88.84Y48.598
X88.84Y47.412
X88.84Y-11.202
X88.84Y-12.388
X88.84Y-71.002
X88.84Y-72.188
X88.84Y-130.802
X88.84Y-131.989
X89.629Y77.913
X89.629Y18.113
X89.629Y-41.687
X89.629Y-101.487
X90.772Y74.775
X90.772Y14.975
X90.772Y-44.825
X90.772Y-104.625
X92.103Y77.913
X92.103Y18.113
X92.103Y-41.687
X92.103Y-101.487
X92.169Y63.297
X92.169Y3.497
X92.169Y-56.303
X92.169Y-116.103
X93.035Y41.773
X93.035Y-18.027
X93.035Y-77.827
X93.035Y-137.627
X93.297Y43.932
X93.297Y-15.868
X93.297Y-75.668
X93.297Y-135.468
X93.551Y64.76
X93.551Y4.96
X93.551Y-54.84
X93.551Y-114.64
X94.059Y44.567
X94.059Y-15.233
X94.059Y-75.033
X94.059Y-134.833
X94.313Y67.554
X94.313Y7.754
X94.313Y-52.046
X94.313Y-111.846
X94.395Y60.533
X94.395Y0.733
X94.395Y-59.067
X94.395Y-118.867
X94.587Y77.913
X94.587Y18.113
X94.587Y-41.687
X94.587Y-101.487
X94.979Y60.276
X94.979Y0.476
X94.979Y-59.324
X94.979Y-119.124
X95.078Y52.261
X95.078Y-7.539
X95.078Y-67.339
X95.078Y-127.139
X95.812Y59.38
X95.812Y-0.42
X95.812Y-60.22
X95.812Y-120.02
X97.59Y65.857
X97.59Y6.057
X97.59Y-53.743
X97.59Y-113.543
X98.046Y71.638
X98.046Y11.838
X98.046Y-47.962
X98.046Y-107.762
X98.235Y79.748
X98.235Y19.948
X98.235Y-39.852
X98.235Y-99.652
X98.25Y74.666
X98.25Y14.866
X98.25Y-44.934
X98.25Y-104.734
X99.47Y55.84
X99.47Y-3.96
X99.47Y-63.76
X99.47Y-123.56
X99.662Y37.437
X99.662Y-22.363
X99.662Y-82.163
X99.662Y-141.963
T2
X-31.146Y67.3
X-31.146Y7.5
X-31.146Y-52.3
X-31.146Y-112.1
X-27.59Y70.094
X-27.59Y10.294
X-27.59Y-49.506
X-27.59Y-109.306
X-26.511Y67.872
X-26.511Y8.071
X-26.511Y-51.729
X-26.511Y-111.529
X-23.844Y67.935
X-23.844Y8.135
X-23.844Y-51.665
X-23.844Y-111.465
X-21.685Y67.872
X-21.685Y8.071
X-21.685Y-51.729
X-21.685Y-111.529
X71.834Y67.3
X71.834Y7.5
X71.834Y-52.3
X71.834Y-112.1
X75.39Y70.094
X75.39Y10.294
X75.39Y-49.506
X75.39Y-109.306
X76.47Y67.872
X76.47Y8.071
X76.47Y-51.729
X76.47Y-111.529
X79.137Y67.935
X79.137Y8.135
X79.137Y-51.665
X79.137Y-111.465
X81.296Y67.872
X81.296Y8.071
X81.296Y-51.729
X81.296Y-111.529
T3
X-51.26Y46.84
X-51.26Y-12.96
X-51.26Y-72.76
X-51.26Y-132.56
X-25.685Y45.964
X-25.685Y-13.836
X-25.685Y-73.636
X-25.685Y-133.436
X-15.271Y45.964
X-15.271Y-13.836
X-15.271Y-73.636
X-15.271Y-133.436
X-14.636Y45.964
X-14.636Y-13.836
X-14.636Y-73.636
X-14.636Y-133.436
X51.72Y46.84
X51.72Y-12.96
X51.72Y-72.76
X51.72Y-132.56
X77.295Y45.964
X77.295Y-13.836
X77.295Y-73.636
X77.295Y-133.436
X87.709Y45.964
X87.709Y-13.836
X87.709Y-73.636
X87.709Y-133.436
X88.344Y45.964
X88.344Y-13.836
X88.344Y-73.636
X88.344Y-133.436
T4
X-77.755Y81.524
X-77.755Y21.724
X-77.755Y-38.076
X-77.755Y-97.876
X-71.29Y81.72
X-71.29Y21.92
X-71.29Y-37.88
X-71.29Y-97.68
X-61.753Y40.068
X-61.753Y-19.732
X-61.753Y-79.532
X-61.753Y-139.332
X-56.81Y49.22
X-56.81Y-10.58
X-56.81Y-70.38
X-56.81Y-130.18
X-39.63Y44.94
X-39.63Y-14.86
X-39.63Y-74.66
X-39.63Y-134.46
X-37.21Y45.74
X-37.21Y-14.06
X-37.21Y-73.86
X-37.21Y-133.66
X-32.782Y56.043
X-32.782Y-3.758
X-32.782Y-63.558
X-32.782Y-123.358
X-30.623Y69.861
X-30.623Y10.061
X-30.623Y-49.739
X-30.623Y-109.539
X-30.596Y54.432
X-30.596Y-5.368
X-30.596Y-65.168
X-30.596Y-124.968
X-29.099Y54.455
X-29.099Y-5.345
X-29.099Y-65.145
X-29.099Y-124.945
X-15.97Y69.396
X-15.97Y9.595
X-15.97Y-50.205
X-15.97Y-110.005
X-4.755Y78.43
X-4.755Y18.63
X-4.755Y-41.17
X-4.755Y-100.97
X-4.034Y44.059
X-4.034Y-15.741
X-4.034Y-75.541
X-4.034Y-135.341
X25.225Y81.524
X25.225Y21.724
X25.225Y-38.076
X25.225Y-97.876
X31.69Y81.72
X31.69Y21.92
X31.69Y-37.88
X31.69Y-97.68
X41.227Y40.068
X41.227Y-19.732
X41.227Y-79.532
X41.227Y-139.332
X46.17Y49.22
X46.17Y-10.58
X46.17Y-70.38
X46.17Y-130.18
X63.35Y44.94
X63.35Y-14.86
X63.35Y-74.66
X63.35Y-134.46
X65.77Y45.74
X65.77Y-14.06
X65.77Y-73.86
X65.77Y-133.66
X70.198Y56.043
X70.198Y-3.758
X70.198Y-63.558
X70.198Y-123.358
X72.357Y69.861
X72.357Y10.061
X72.357Y-49.739
X72.357Y-109.539
X72.384Y54.432
X72.384Y-5.368
X72.384Y-65.168
X72.384Y-124.968
X73.881Y54.455
X73.881Y-5.345
X73.881Y-65.145
X73.881Y-124.945
X87.011Y69.396
X87.011Y9.595
X87.011Y-50.205
X87.011Y-110.005
X98.225Y78.43
X98.225Y18.63
X98.225Y-41.17
X98.225Y-100.97
X98.946Y44.059
X98.946Y-15.741
X98.946Y-75.541
X98.946Y-135.341
T5
X-84.01Y50.84
X-84.01Y-8.96
X-84.01Y-68.76
X-84.01Y-128.56
X-82.708Y50.79
X-82.708Y-9.01
X-82.708Y-68.81
X-82.708Y-128.61
X18.97Y50.84
X18.97Y-8.96
X18.97Y-68.76
X18.97Y-128.56
X20.272Y50.79
X20.272Y-9.01
X20.272Y-68.81
X20.272Y-128.61
T6
X-78.009Y59.553
X-78.009Y-0.247
X-78.009Y-60.047
X-78.009Y-119.847
X-74.596Y40.404
X-74.596Y-19.396
X-74.596Y-79.196
X-74.596Y-138.996
X-74.58Y59.553
X-74.58Y-0.247
X-74.58Y-60.047
X-74.58Y-119.847
X-72.44Y47.143
X-72.44Y-12.657
X-72.44Y-72.457
X-72.44Y-132.257
X-17.684Y80.381
X-17.684Y20.581
X-17.684Y-39.219
X-17.684Y-99.019
X-13.493Y61.585
X-13.493Y1.785
X-13.493Y-58.015
X-13.493Y-117.815
X-12.16Y71.828
X-12.16Y12.028
X-12.16Y-47.772
X-12.16Y-107.572
X-11.08Y69.459
X-11.08Y9.659
X-11.08Y-50.141
X-11.08Y-109.941
X-8.794Y61.839
X-8.794Y2.039
X-8.794Y-57.761
X-8.794Y-117.561
X-4.969Y54.328
X-4.969Y-5.472
X-4.969Y-65.272
X-4.969Y-125.072
X24.971Y59.553
X24.971Y-0.247
X24.971Y-60.047
X24.971Y-119.847
X28.384Y40.404
X28.384Y-19.396
X28.384Y-79.196
X28.384Y-138.996
X28.4Y59.553
X28.4Y-0.247
X28.4Y-60.047
X28.4Y-119.847
X30.54Y47.143
X30.54Y-12.657
X30.54Y-72.457
X30.54Y-132.257
X85.296Y80.381
X85.296Y20.581
X85.296Y-39.219
X85.296Y-99.019
X89.487Y61.585
X89.487Y1.785
X89.487Y-58.015
X89.487Y-117.815
X90.821Y71.828
X90.821Y12.028
X90.821Y-47.772
X90.821Y-107.572
X91.9Y69.459
X91.9Y9.659
X91.9Y-50.141
X91.9Y-109.941
X94.186Y61.839
X94.186Y2.039
X94.186Y-57.761
X94.186Y-117.561
X98.011Y54.328
X98.011Y-5.472
X98.011Y-65.272
X98.011Y-125.072
T7
X-84.334Y77.465
X-84.334Y17.665
X-84.334Y-42.135
X-84.334Y-101.935
X-84.296Y54.156
X-84.296Y-5.645
X-84.296Y-65.445
X-84.296Y-125.245
X-83.343Y48.25
X-83.343Y-11.55
X-83.343Y-71.35
X-83.343Y-131.15
X-78.215Y84.086
X-78.215Y24.286
X-78.215Y-35.514
X-78.215Y-95.314
X-70.643Y71.745
X-70.643Y11.945
X-70.643Y-47.855
X-70.643Y-107.655
X-69.373Y41.011
X-69.373Y-18.789
X-69.373Y-78.589
X-69.373Y-138.389
X-68.309Y84.237
X-68.309Y24.437
X-68.309Y-35.363
X-68.309Y-95.163
X-67.19Y82.22
X-67.19Y22.42
X-67.19Y-37.38
X-67.19Y-97.18
X-66.198Y41.646
X-66.198Y-18.154
X-66.198Y-77.954
X-66.198Y-137.754
X-64.978Y40.407
X-64.978Y-19.394
X-64.978Y-79.194
X-64.978Y-138.994
X-61.89Y85.42
X-61.89Y25.62
X-61.89Y-34.18
X-61.89Y-93.98
X-50.084Y82.936
X-50.084Y23.136
X-50.084Y-36.664
X-50.084Y-96.464
X-37.735Y42.009
X-37.735Y-17.791
X-37.735Y-77.591
X-37.735Y-137.391
X-36.922Y69.884
X-36.922Y10.084
X-36.922Y-49.716
X-36.922Y-109.516
X-35.449Y40.231
X-35.449Y-19.569
X-35.449Y-79.369
X-35.449Y-139.169
X-33.432Y49.266
X-33.432Y-10.534
X-33.432Y-70.334
X-33.432Y-130.134
X-26.65Y54.171
X-26.65Y-5.629
X-26.65Y-65.429
X-26.65Y-125.229
X-26.545Y50.405
X-26.545Y-9.395
X-26.545Y-69.195
X-26.545Y-128.995
X-25.924Y76.834
X-25.924Y17.034
X-25.924Y-42.766
X-25.924Y-102.566
X-25.304Y50.409
X-25.304Y-9.391
X-25.304Y-69.191
X-25.304Y-128.991
X-24.29Y54.02
X-24.29Y-5.78
X-24.29Y-65.58
X-24.29Y-125.38
X-21.987Y54.074
X-21.987Y-5.726
X-21.987Y-65.526
X-21.987Y-125.326
X-20.564Y54.058
X-20.564Y-5.742
X-20.564Y-65.542
X-20.564Y-125.342
X-20.336Y85.697
X-20.336Y25.897
X-20.336Y-33.903
X-20.336Y-93.703
X-18.558Y52.677
X-18.558Y-7.123
X-18.558Y-66.923
X-18.558Y-126.723
X-11.461Y80.508
X-11.461Y20.708
X-11.461Y-39.092
X-11.461Y-98.892
X-9.414Y85.697
X-9.414Y25.897
X-9.414Y-33.903
X-9.414Y-93.703
X-9.048Y54.473
X-9.048Y-5.327
X-9.048Y-65.127
X-9.048Y-124.927
X-7.532Y66.759
X-7.532Y6.959
X-7.532Y-52.841
X-7.532Y-112.641
X-7.27Y44.186
X-7.27Y-15.614
X-7.27Y-75.414
X-7.27Y-135.214
X-4.476Y57.14
X-4.476Y-2.66
X-4.476Y-62.46
X-4.476Y-122.26
X-3.485Y63.444
X-3.485Y3.644
X-3.485Y-56.156
X-3.485Y-115.956
X18.646Y77.465
X18.646Y17.665
X18.646Y-42.135
X18.646Y-101.935
X18.685Y54.156
X18.685Y-5.645
X18.685Y-65.445
X18.685Y-125.245
X19.637Y48.25
X19.637Y-11.55
X19.637Y-71.35
X19.637Y-131.15
X24.765Y84.086
X24.765Y24.286
X24.765Y-35.514
X24.765Y-95.314
X32.337Y71.745
X32.337Y11.945
X32.337Y-47.855
X32.337Y-107.655
X33.607Y41.011
X33.607Y-18.789
X33.607Y-78.589
X33.607Y-138.389
X34.671Y84.237
X34.671Y24.437
X34.671Y-35.363
X34.671Y-95.163
X35.79Y82.22
X35.79Y22.42
X35.79Y-37.38
X35.79Y-97.18
X36.782Y41.646
X36.782Y-18.154
X36.782Y-77.954
X36.782Y-137.754
X38.002Y40.407
X38.002Y-19.394
X38.002Y-79.194
X38.002Y-138.994
X41.09Y85.42
X41.09Y25.62
X41.09Y-34.18
X41.09Y-93.98
X52.896Y82.936
X52.896Y23.136
X52.896Y-36.664
X52.896Y-96.464
X65.245Y42.009
X65.245Y-17.791
X65.245Y-77.591
X65.245Y-137.391
X66.058Y69.884
X66.058Y10.084
X66.058Y-49.716
X66.058Y-109.516
X67.531Y40.231
X67.531Y-19.569
X67.531Y-79.369
X67.531Y-139.169
X69.548Y49.266
X69.548Y-10.534
X69.548Y-70.334
X69.548Y-130.134
X76.33Y54.171
X76.33Y-5.629
X76.33Y-65.429
X76.33Y-125.229
X76.435Y50.405
X76.435Y-9.395
X76.435Y-69.195
X76.435Y-128.995
X77.056Y76.834
X77.056Y17.034
X77.056Y-42.766
X77.056Y-102.566
X77.676Y50.409
X77.676Y-9.391
X77.676Y-69.191
X77.676Y-128.991
X78.69Y54.02
X78.69Y-5.78
X78.69Y-65.58
X78.69Y-125.38
X80.993Y54.074
X80.993Y-5.726
X80.993Y-65.526
X80.993Y-125.326
X82.416Y54.058
X82.416Y-5.742
X82.416Y-65.542
X82.416Y-125.342
X82.644Y85.697
X82.644Y25.897
X82.644Y-33.903
X82.644Y-93.703
X84.422Y52.677
X84.422Y-7.123
X84.422Y-66.923
X84.422Y-126.723
X91.519Y80.508
X91.519Y20.708
X91.519Y-39.092
X91.519Y-98.892
X93.566Y85.697
X93.566Y25.897
X93.566Y-33.903
X93.566Y-93.703
X93.932Y54.473
X93.932Y-5.327
X93.932Y-65.127
X93.932Y-124.927
X95.448Y66.759
X95.448Y6.959
X95.448Y-52.841
X95.448Y-112.641
X95.71Y44.186
X95.71Y-15.614
X95.71Y-75.414
X95.71Y-135.214
X98.504Y57.14
X98.504Y-2.66
X98.504Y-62.46
X98.504Y-122.26
X99.495Y63.444
X99.495Y3.644
X99.495Y-56.156
X99.495Y-115.956
T8
X-11.7Y54.346
X-11.7Y-5.454
X-11.7Y-65.254
X-11.7Y-125.054
X91.28Y54.346
X91.28Y-5.454
X91.28Y-65.254
X91.28Y-125.054
T9
X-82.2Y53.33
X-82.2Y-6.47
X-82.2Y-66.27
X-82.2Y-126.07
X-79.66Y53.33
X-79.66Y-6.47
X-79.66Y-66.27
X-79.66Y-126.07
X-55.134Y77.315
X-55.134Y17.515
X-55.134Y-42.285
X-55.134Y-102.085
X-52.594Y77.315
X-52.594Y17.515
X-52.594Y-42.285
X-52.594Y-102.085
X-50.054Y77.315
X-50.054Y17.515
X-50.054Y-42.285
X-50.054Y-102.085
X20.78Y53.33
X20.78Y-6.47
X20.78Y-66.27
X20.78Y-126.07
X23.32Y53.33
X23.32Y-6.47
X23.32Y-66.27
X23.32Y-126.07
X47.846Y77.315
X47.846Y17.515
X47.846Y-42.285
X47.846Y-102.085
X50.386Y77.315
X50.386Y17.515
X50.386Y-42.285
X50.386Y-102.085
X52.926Y77.315
X52.926Y17.515
X52.926Y-42.285
X52.926Y-102.085
T10
X-89.82Y86.35
X-89.82Y83.81
X-89.82Y81.27
X-89.82Y78.73
X-89.82Y76.19
X-89.82Y73.65
X-89.82Y71.11
X-89.82Y68.57
X-89.82Y66.03
X-89.82Y63.49
X-89.82Y60.95
X-89.82Y58.41
X-89.82Y55.87
X-89.82Y53.33
X-89.82Y50.79
X-89.82Y48.25
X-89.82Y45.71
X-89.82Y43.17
X-89.82Y40.63
X-89.82Y38.09
X-89.82Y26.55
X-89.82Y24.01
X-89.82Y21.47
X-89.82Y18.93
X-89.82Y16.39
X-89.82Y13.85
X-89.82Y11.31
X-89.82Y8.77
X-89.82Y6.23
X-89.82Y3.69
X-89.82Y1.15
X-89.82Y-1.39
X-89.82Y-3.93
X-89.82Y-6.47
X-89.82Y-9.01
X-89.82Y-11.55
X-89.82Y-14.09
X-89.82Y-16.63
X-89.82Y-19.17
X-89.82Y-21.71
X-89.82Y-33.25
X-89.82Y-35.79
X-89.82Y-38.33
X-89.82Y-40.87
X-89.82Y-43.41
X-89.82Y-45.95
X-89.82Y-48.49
X-89.82Y-51.03
X-89.82Y-53.57
X-89.82Y-56.11
X-89.82Y-58.65
X-89.82Y-61.19
X-89.82Y-63.73
X-89.82Y-66.27
X-89.82Y-68.81
X-89.82Y-71.35
X-89.82Y-73.89
X-89.82Y-76.43
X-89.82Y-78.97
X-89.82Y-81.51
X-89.82Y-93.05
X-89.82Y-95.59
X-89.82Y-98.13
X-89.82Y-100.67
X-89.82Y-103.21
X-89.82Y-105.75
X-89.82Y-108.29
X-89.82Y-110.83
X-89.82Y-113.37
X-89.82Y-115.91
X-89.82Y-118.45
X-89.82Y-120.99
X-89.82Y-123.53
X-89.82Y-126.07
X-89.82Y-128.61
X-89.82Y-131.15
X-89.82Y-133.69
X-89.82Y-136.23
X-89.82Y-138.77
X-89.82Y-141.31
X-87.28Y86.35
X-87.28Y83.81
X-87.28Y81.27
X-87.28Y78.73
X-87.28Y76.19
X-87.28Y73.65
X-87.28Y71.11
X-87.28Y68.57
X-87.28Y66.03
X-87.28Y63.49
X-87.28Y60.95
X-87.28Y58.41
X-87.28Y55.87
X-87.28Y53.33
X-87.28Y50.79
X-87.28Y48.25
X-87.28Y45.71
X-87.28Y43.17
X-87.28Y40.63
X-87.28Y38.09
X-87.28Y26.55
X-87.28Y24.01
X-87.28Y21.47
X-87.28Y18.93
X-87.28Y16.39
X-87.28Y13.85
X-87.28Y11.31
X-87.28Y8.77
X-87.28Y6.23
X-87.28Y3.69
X-87.28Y1.15
X-87.28Y-1.39
X-87.28Y-3.93
X-87.28Y-6.47
X-87.28Y-9.01
X-87.28Y-11.55
X-87.28Y-14.09
X-87.28Y-16.63
X-87.28Y-19.17
X-87.28Y-21.71
X-87.28Y-33.25
X-87.28Y-35.79
X-87.28Y-38.33
X-87.28Y-40.87
X-87.28Y-43.41
X-87.28Y-45.95
X-87.28Y-48.49
X-87.28Y-51.03
X-87.28Y-53.57
X-87.28Y-56.11
X-87.28Y-58.65
X-87.28Y-61.19
X-87.28Y-63.73
X-87.28Y-66.27
X-87.28Y-68.81
X-87.28Y-71.35
X-87.28Y-73.89
X-87.28Y-76.43
X-87.28Y-78.97
X-87.28Y-81.51
X-87.28Y-93.05
X-87.28Y-95.59
X-87.28Y-98.13
X-87.28Y-100.67
X-87.28Y-103.21
X-87.28Y-105.75
X-87.28Y-108.29
X-87.28Y-110.83
X-87.28Y-113.37
X-87.28Y-115.91
X-87.28Y-118.45
X-87.28Y-120.99
X-87.28Y-123.53
X-87.28Y-126.07
X-87.28Y-128.61
X-87.28Y-131.15
X-87.28Y-133.69
X-87.28Y-136.23
X-87.28Y-138.77
X-87.28Y-141.31
X-55.05Y48.25
X-55.05Y-11.55
X-55.05Y-71.35
X-55.05Y-131.15
X-52.51Y48.25
X-52.51Y-11.55
X-52.51Y-71.35
X-52.51Y-131.15
X-49.97Y48.25
X-49.97Y-11.55
X-49.97Y-71.35
X-49.97Y-131.15
X-47.43Y48.25
X-47.43Y44.44
X-47.43Y41.9
X-47.43Y39.36
X-47.43Y-11.55
X-47.43Y-15.36
X-47.43Y-17.9
X-47.43Y-20.44
X-47.43Y-71.35
X-47.43Y-75.16
X-47.43Y-77.7
X-47.43Y-80.24
X-47.43Y-131.15
X-47.43Y-134.96
X-47.43Y-137.5
X-47.43Y-140.04
X-44.925Y48.25
X-44.925Y-11.55
X-44.925Y-71.35
X-44.925Y-131.15
X-44.89Y44.44
X-44.89Y41.9
X-44.89Y39.36
X-44.89Y-15.36
X-44.89Y-17.9
X-44.89Y-20.44
X-44.89Y-75.16
X-44.89Y-77.7
X-44.89Y-80.24
X-44.89Y-134.96
X-44.89Y-137.5
X-44.89Y-140.04
X-42.35Y48.25
X-42.35Y-11.55
X-42.35Y-71.35
X-42.35Y-131.15
X-39.81Y48.25
X-39.81Y-11.55
X-39.81Y-71.35
X-39.81Y-131.15
X-37.27Y48.25
X-37.27Y-11.55
X-37.27Y-71.35
X-37.27Y-131.15
X-0.92Y86.35
X-0.92Y83.81
X-0.92Y81.27
X-0.92Y78.73
X-0.92Y76.19
X-0.92Y73.65
X-0.92Y71.11
X-0.92Y68.57
X-0.92Y66.03
X-0.92Y63.49
X-0.92Y60.95
X-0.92Y58.41
X-0.92Y55.87
X-0.92Y53.33
X-0.92Y50.79
X-0.92Y48.25
X-0.92Y45.71
X-0.92Y43.17
X-0.92Y40.63
X-0.92Y38.09
X-0.92Y26.55
X-0.92Y24.01
X-0.92Y21.47
X-0.92Y18.93
X-0.92Y16.39
X-0.92Y13.85
X-0.92Y11.31
X-0.92Y8.77
X-0.92Y6.23
X-0.92Y3.69
X-0.92Y1.15
X-0.92Y-1.39
X-0.92Y-3.93
X-0.92Y-6.47
X-0.92Y-9.01
X-0.92Y-11.55
X-0.92Y-14.09
X-0.92Y-16.63
X-0.92Y-19.17
X-0.92Y-21.71
X-0.92Y-33.25
X-0.92Y-35.79
X-0.92Y-38.33
X-0.92Y-40.87
X-0.92Y-43.41
X-0.92Y-45.95
X-0.92Y-48.49
X-0.92Y-51.03
X-0.92Y-53.57
X-0.92Y-56.11
X-0.92Y-58.65
X-0.92Y-61.19
X-0.92Y-63.73
X-0.92Y-66.27
X-0.92Y-68.81
X-0.92Y-71.35
X-0.92Y-73.89
X-0.92Y-76.43
X-0.92Y-78.97
X-0.92Y-81.51
X-0.92Y-93.05
X-0.92Y-95.59
X-0.92Y-98.13
X-0.92Y-100.67
X-0.92Y-103.21
X-0.92Y-105.75
X-0.92Y-108.29
X-0.92Y-110.83
X-0.92Y-113.37
X-0.92Y-115.91
X-0.92Y-118.45
X-0.92Y-120.99
X-0.92Y-123.53
X-0.92Y-126.07
X-0.92Y-128.61
X-0.92Y-131.15
X-0.92Y-133.69
X-0.92Y-136.23
X-0.92Y-138.77
X-0.92Y-141.31
X1.62Y86.35
X1.62Y83.81
X1.62Y81.27
X1.62Y78.73
X1.62Y76.19
X1.62Y73.65
X1.62Y71.11
X1.62Y68.57
X1.62Y66.03
X1.62Y63.49
X1.62Y60.95
X1.62Y58.41
X1.62Y55.87
X1.62Y53.33
X1.62Y50.79
X1.62Y48.25
X1.62Y45.71
X1.62Y43.17
X1.62Y40.63
X1.62Y38.09
X1.62Y26.55
X1.62Y24.01
X1.62Y21.47
X1.62Y18.93
X1.62Y16.39
X1.62Y13.85
X1.62Y11.31
X1.62Y8.77
X1.62Y6.23
X1.62Y3.69
X1.62Y1.15
X1.62Y-1.39
X1.62Y-3.93
X1.62Y-6.47
X1.62Y-9.01
X1.62Y-11.55
X1.62Y-14.09
X1.62Y-16.63
X1.62Y-19.17
X1.62Y-21.71
X1.62Y-33.25
X1.62Y-35.79
X1.62Y-38.33
X1.62Y-40.87
X1.62Y-43.41
X1.62Y-45.95
X1.62Y-48.49
X1.62Y-51.03
X1.62Y-53.57
X1.62Y-56.11
X1.62Y-58.65
X1.62Y-61.19
X1.62Y-63.73
X1.62Y-66.27
X1.62Y-68.81
X1.62Y-71.35
X1.62Y-73.89
X1.62Y-76.43
X1.62Y-78.97
X1.62Y-81.51
X1.62Y-93.05
X1.62Y-95.59
X1.62Y-98.13
X1.62Y-100.67
X1.62Y-103.21
X1.62Y-105.75
X1.62Y-108.29
X1.62Y-110.83
X1.62Y-113.37
X1.62Y-115.91
X1.62Y-118.45
X1.62Y-120.99
X1.62Y-123.53
X1.62Y-126.07
X1.62Y-128.61
X1.62Y-131.15
X1.62Y-133.69
X1.62Y-136.23
X1.62Y-138.77
X1.62Y-141.31
X13.16Y86.35
X13.16Y83.81
X13.16Y81.27
X13.16Y78.73
X13.16Y76.19
X13.16Y73.65
X13.16Y71.11
X13.16Y68.57
X13.16Y66.03
X13.16Y63.49
X13.16Y60.95
X13.16Y58.41
X13.16Y55.87
X13.16Y53.33
X13.16Y50.79
X13.16Y48.25
X13.16Y45.71
X13.16Y43.17
X13.16Y40.63
X13.16Y38.09
X13.16Y26.55
X13.16Y24.01
X13.16Y21.47
X13.16Y18.93
X13.16Y16.39
X13.16Y13.85
X13.16Y11.31
X13.16Y8.77
X13.16Y6.23
X13.16Y3.69
X13.16Y1.15
X13.16Y-1.39
X13.16Y-3.93
X13.16Y-6.47
X13.16Y-9.01
X13.16Y-11.55
X13.16Y-14.09
X13.16Y-16.63
X13.16Y-19.17
X13.16Y-21.71
X13.16Y-33.25
X13.16Y-35.79
X13.16Y-38.33
X13.16Y-40.87
X13.16Y-43.41
X13.16Y-45.95
X13.16Y-48.49
X13.16Y-51.03
X13.16Y-53.57
X13.16Y-56.11
X13.16Y-58.65
X13.16Y-61.19
X13.16Y-63.73
X13.16Y-66.27
X13.16Y-68.81
X13.16Y-71.35
X13.16Y-73.89
X13.16Y-76.43
X13.16Y-78.97
X13.16Y-81.51
X13.16Y-93.05
X13.16Y-95.59
X13.16Y-98.13
X13.16Y-100.67
X13.16Y-103.21
X13.16Y-105.75
X13.16Y-108.29
X13.16Y-110.83
X13.16Y-113.37
X13.16Y-115.91
X13.16Y-118.45
X13.16Y-120.99
X13.16Y-123.53
X13.16Y-126.07
X13.16Y-128.61
X13.16Y-131.15
X13.16Y-133.69
X13.16Y-136.23
X13.16Y-138.77
X13.16Y-141.31
X15.7Y86.35
X15.7Y83.81
X15.7Y81.27
X15.7Y78.73
X15.7Y76.19
X15.7Y73.65
X15.7Y71.11
X15.7Y68.57
X15.7Y66.03
X15.7Y63.49
X15.7Y60.95
X15.7Y58.41
X15.7Y55.87
X15.7Y53.33
X15.7Y50.79
X15.7Y48.25
X15.7Y45.71
X15.7Y43.17
X15.7Y40.63
X15.7Y38.09
X15.7Y26.55
X15.7Y24.01
X15.7Y21.47
X15.7Y18.93
X15.7Y16.39
X15.7Y13.85
X15.7Y11.31
X15.7Y8.77
X15.7Y6.23
X15.7Y3.69
X15.7Y1.15
X15.7Y-1.39
X15.7Y-3.93
X15.7Y-6.47
X15.7Y-9.01
X15.7Y-11.55
X15.7Y-14.09
X15.7Y-16.63
X15.7Y-19.17
X15.7Y-21.71
X15.7Y-33.25
X15.7Y-35.79
X15.7Y-38.33
X15.7Y-40.87
X15.7Y-43.41
X15.7Y-45.95
X15.7Y-48.49
X15.7Y-51.03
X15.7Y-53.57
X15.7Y-56.11
X15.7Y-58.65
X15.7Y-61.19
X15.7Y-63.73
X15.7Y-66.27
X15.7Y-68.81
X15.7Y-71.35
X15.7Y-73.89
X15.7Y-76.43
X15.7Y-78.97
X15.7Y-81.51
X15.7Y-93.05
X15.7Y-95.59
X15.7Y-98.13
X15.7Y-100.67
X15.7Y-103.21
X15.7Y-105.75
X15.7Y-108.29
X15.7Y-110.83
X15.7Y-113.37
X15.7Y-115.91
X15.7Y-118.45
X15.7Y-120.99
X15.7Y-123.53
X15.7Y-126.07
X15.7Y-128.61
X15.7Y-131.15
X15.7Y-133.69
X15.7Y-136.23
X15.7Y-138.77
X15.7Y-141.31
X47.93Y48.25
X47.93Y-11.55
X47.93Y-71.35
X47.93Y-131.15
X50.47Y48.25
X50.47Y-11.55
X50.47Y-71.35
X50.47Y-131.15
X53.01Y48.25
X53.01Y-11.55
X53.01Y-71.35
X53.01Y-131.15
X55.55Y48.25
X55.55Y44.44
X55.55Y41.9
X55.55Y39.36
X55.55Y-11.55
X55.55Y-15.36
X55.55Y-17.9
X55.55Y-20.44
X55.55Y-71.35
X55.55Y-75.16
X55.55Y-77.7
X55.55Y-80.24
X55.55Y-131.15
X55.55Y-134.96
X55.55Y-137.5
X55.55Y-140.04
X58.055Y48.25
X58.055Y-11.55
X58.055Y-71.35
X58.055Y-131.15
X58.09Y44.44
X58.09Y41.9
X58.09Y39.36
X58.09Y-15.36
X58.09Y-17.9
X58.09Y-20.44
X58.09Y-75.16
X58.09Y-77.7
X58.09Y-80.24
X58.09Y-134.96
X58.09Y-137.5
X58.09Y-140.04
X60.63Y48.25
X60.63Y-11.55
X60.63Y-71.35
X60.63Y-131.15
X63.17Y48.25
X63.17Y-11.55
X63.17Y-71.35
X63.17Y-131.15
X65.71Y48.25
X65.71Y-11.55
X65.71Y-71.35
X65.71Y-131.15
X102.06Y86.35
X102.06Y83.81
X102.06Y81.27
X102.06Y78.73
X102.06Y76.19
X102.06Y73.65
X102.06Y71.11
X102.06Y68.57
X102.06Y66.03
X102.06Y63.49
X102.06Y60.95
X102.06Y58.41
X102.06Y55.87
X102.06Y53.33
X102.06Y50.79
X102.06Y48.25
X102.06Y45.71
X102.06Y43.17
X102.06Y40.63
X102.06Y38.09
X102.06Y26.55
X102.06Y24.01
X102.06Y21.47
X102.06Y18.93
X102.06Y16.39
X102.06Y13.85
X102.06Y11.31
X102.06Y8.77
X102.06Y6.23
X102.06Y3.69
X102.06Y1.15
X102.06Y-1.39
X102.06Y-3.93
X102.06Y-6.47
X102.06Y-9.01
X102.06Y-11.55
X102.06Y-14.09
X102.06Y-16.63
X102.06Y-19.17
X102.06Y-21.71
X102.06Y-33.25
X102.06Y-35.79
X102.06Y-38.33
X102.06Y-40.87
X102.06Y-43.41
X102.06Y-45.95
X102.06Y-48.49
X102.06Y-51.03
X102.06Y-53.57
X102.06Y-56.11
X102.06Y-58.65
X102.06Y-61.19
X102.06Y-63.73
X102.06Y-66.27
X102.06Y-68.81
X102.06Y-71.35
X102.06Y-73.89
X102.06Y-76.43
X102.06Y-78.97
X102.06Y-81.51
X102.06Y-93.05
X102.06Y-95.59
X102.06Y-98.13
X102.06Y-100.67
X102.06Y-103.21
X102.06Y-105.75
X102.06Y-108.29
X102.06Y-110.83
X102.06Y-113.37
X102.06Y-115.91
X102.06Y-118.45
X102.06Y-120.99
X102.06Y-123.53
X102.06Y-126.07
X102.06Y-128.61
X102.06Y-131.15
X102.06Y-133.69
X102.06Y-136.23
X102.06Y-138.77
X102.06Y-141.31
X104.6Y86.35
X104.6Y83.81
X104.6Y81.27
X104.6Y78.73
X104.6Y76.19
X104.6Y73.65
X104.6Y71.11
X104.6Y68.57
X104.6Y66.03
X104.6Y63.49
X104.6Y60.95
X104.6Y58.41
X104.6Y55.87
X104.6Y53.33
X104.6Y50.79
X104.6Y48.25
X104.6Y45.71
X104.6Y43.17
X104.6Y40.63
X104.6Y38.09
X104.6Y26.55
X104.6Y24.01
X104.6Y21.47
X104.6Y18.93
X104.6Y16.39
X104.6Y13.85
X104.6Y11.31
X104.6Y8.77
X104.6Y6.23
X104.6Y3.69
X104.6Y1.15
X104.6Y-1.39
X104.6Y-3.93
X104.6Y-6.47
X104.6Y-9.01
X104.6Y-11.55
X104.6Y-14.09
X104.6Y-16.63
X104.6Y-19.17
X104.6Y-21.71
X104.6Y-33.25
X104.6Y-35.79
X104.6Y-38.33
X104.6Y-40.87
X104.6Y-43.41
X104.6Y-45.95
X104.6Y-48.49
X104.6Y-51.03
X104.6Y-53.57
X104.6Y-56.11
X104.6Y-58.65
X104.6Y-61.19
X104.6Y-63.73
X104.6Y-66.27
X104.6Y-68.81
X104.6Y-71.35
X104.6Y-73.89
X104.6Y-76.43
X104.6Y-78.97
X104.6Y-81.51
X104.6Y-93.05
X104.6Y-95.59
X104.6Y-98.13
X104.6Y-100.67
X104.6Y-103.21
X104.6Y-105.75
X104.6Y-108.29
X104.6Y-110.83
X104.6Y-113.37
X104.6Y-115.91
X104.6Y-118.45
X104.6Y-120.99
X104.6Y-123.53
X104.6Y-126.07
X104.6Y-128.61
X104.6Y-131.15
X104.6Y-133.69
X104.6Y-136.23
X104.6Y-138.77
X104.6Y-141.31
T11
X-47.744Y84.628
X-47.744Y24.828
X-47.744Y-34.972
X-47.744Y-94.772
X-47.144Y79.728
X-47.144Y19.928
X-47.144Y-39.872
X-47.144Y-99.672
X-32.644Y79.728
X-32.644Y19.928
X-32.644Y-39.872
X-32.644Y-99.672
X-32.044Y84.628
X-32.044Y24.828
X-32.044Y-34.972
X-32.044Y-94.772
X55.236Y84.628
X55.236Y24.828
X55.236Y-34.972
X55.236Y-94.772
X55.836Y79.728
X55.836Y19.928
X55.836Y-39.872
X55.836Y-99.672
X70.336Y79.728
X70.336Y19.928
X70.336Y-39.872
X70.336Y-99.672
X70.936Y84.628
X70.936Y24.828
X70.936Y-34.972
X70.936Y-94.772
T12
X-82.2Y83.81
X-82.2Y40.63
X-82.2Y24.01
X-82.2Y-19.17
X-82.2Y-35.79
X-82.2Y-78.97
X-82.2Y-95.59
X-82.2Y-138.77
X-6.0Y83.81
X-6.0Y40.63
X-6.0Y24.01
X-6.0Y-19.17
X-6.0Y-35.79
X-6.0Y-78.97
X-6.0Y-95.59
X-6.0Y-138.77
X20.78Y83.81
X20.78Y40.63
X20.78Y24.01
X20.78Y-19.17
X20.78Y-35.79
X20.78Y-78.97
X20.78Y-95.59
X20.78Y-138.77
X96.98Y83.81
X96.98Y40.63
X96.98Y24.01
X96.98Y-19.17
X96.98Y-35.79
X96.98Y-78.97
X96.98Y-95.59
X96.98Y-138.77
T13
X-60.722Y82.44
X-60.722Y75.44
X-60.722Y22.64
X-60.722Y15.64
X-60.722Y-37.16
X-60.722Y-44.16
X-60.722Y-96.96
X-60.722Y-103.96
X42.258Y82.44
X42.258Y75.44
X42.258Y22.64
X42.258Y15.64
X42.258Y-37.16
X42.258Y-44.16
X42.258Y-96.96
X42.258Y-103.96
T14
X-96.089Y92.639
X-96.089Y-147.599
X110.869Y92.639
X110.869Y-147.599
T0
M30
